<svg xmlns="http://www.w3.org/2000/svg" xmlns:xlink="http://www.w3.org/1999/xlink" id="Layer_1" x="0px" y="0px" viewBox="0 0 96.03 24.11" style="enable-background:new 0 0 96.03 24.11;" xml:space="preserve"><style type="text/css">	.st0{fill:#FFFFFF;}	.st1{display:none;}	.st2{display:inline;}	.st3{fill:#FF9600;}	.st4{fill:#3C0561;}	.st5{display:inline;fill:#692FD5;}	.st6{font-family:'ArialMT';}	.st7{font-size:16.4127px;}	.st8{fill:#692FD5;}	.st9{fill:#F29818;}	.st10{display:none;fill:#692FD5;enable-background:new    ;}	.st11{font-size:6.0024px;}</style><g>	<g id="Layer_1_3_">		<g>			<g>				<g>					<path class="st4" d="M11.6,21.35H7.78V7.26H2.41V4.23h14.56v3.03H11.6V21.35z"/>					<path class="st4" d="M20.85,21.35H17.3V11.34c0-1.11-0.04-2.06-0.13-2.85h3.34l0.08,2.49c0.34-0.79,0.83-1.45,1.45-1.99      c0.62-0.54,1.35-0.81,2.17-0.81c0.41,0,0.75,0.04,1.03,0.13l-0.1,3.18c-0.31-0.12-0.68-0.18-1.1-0.18      c-1.08,0-1.88,0.42-2.4,1.27c-0.52,0.85-0.78,1.85-0.78,3.02L20.85,21.35L20.85,21.35z"/>					<path class="st4" d="M38.2,15.68h-8.6c0.03,1.13,0.41,2.01,1.13,2.64c0.72,0.63,1.75,0.95,3.11,0.95      c1.37,0,2.55-0.28,3.54-0.85l0.15,2.46c-1.16,0.5-2.53,0.74-4.11,0.74c-2.36,0-4.17-0.59-5.42-1.77      c-1.25-1.18-1.87-2.85-1.87-5.01c0-1.93,0.59-3.53,1.78-4.77c1.19-1.25,2.73-1.87,4.61-1.87c3.78,0,5.67,2.21,5.67,6.62      L38.2,15.68L38.2,15.68z M29.6,13.67h5.42c0-0.96-0.19-1.75-0.56-2.39c-0.38-0.63-1.01-0.95-1.9-0.95      c-0.91,0-1.62,0.33-2.13,0.99C29.91,11.99,29.63,12.77,29.6,13.67z"/>					<path class="st4" d="M45.39,21.35h-3.57V10.83h-2.39V8.46h2.39V7.15c0-3.05,1.39-4.57,4.16-4.57c1.1,0,1.93,0.1,2.52,0.31      l-0.15,2.26c-0.29-0.14-0.71-0.21-1.26-0.21c-1.15,0-1.72,0.74-1.72,2.23v1.28h2.77v2.36h-2.75V21.35z"/>					<path class="st4" d="M53.12,21.17c-1.27-0.5-2.23-1.28-2.9-2.36s-1-2.4-1-3.95c0-2.07,0.62-3.7,1.86-4.88      c1.24-1.18,2.87-1.77,4.89-1.77c2.11,0,3.76,0.58,4.95,1.73c1.2,1.16,1.8,2.79,1.8,4.92c0,2.09-0.6,3.74-1.8,4.95      c-1.2,1.22-2.85,1.82-4.95,1.82C54.92,21.63,53.97,21.48,53.12,21.17z M53.65,17.83c0.55,0.92,1.32,1.39,2.31,1.39      c1.04,0,1.8-0.41,2.26-1.24c0.46-0.83,0.69-1.87,0.69-3.12c0-0.53-0.05-1.03-0.14-1.5c-0.09-0.47-0.25-0.92-0.46-1.35      c-0.21-0.43-0.52-0.77-0.92-1.01c-0.4-0.25-0.88-0.37-1.42-0.37c-1.03,0-1.78,0.42-2.25,1.26c-0.47,0.84-0.71,1.83-0.71,2.98      C53.01,16.04,53.23,17.03,53.65,17.83z"/>					<path class="st4" d="M68.72,21.35h-3.54V11.34c0-1.11-0.04-2.06-0.13-2.85h3.34l0.08,2.49c0.34-0.79,0.83-1.45,1.45-1.99      c0.62-0.54,1.35-0.81,2.17-0.81c0.41,0,0.75,0.04,1.03,0.13l-0.1,3.18c-0.31-0.12-0.68-0.18-1.1-0.18      c-1.08,0-1.88,0.42-2.4,1.27c-0.52,0.85-0.78,1.85-0.78,3.02L68.72,21.35L68.72,21.35z"/>					<path class="st4" d="M86.93,21.35h-3.29l-0.13-2.11c-0.77,1.59-2.13,2.39-4.08,2.39c-1.25,0-2.3-0.33-3.14-1      c-0.85-0.67-1.44-1.49-1.77-2.46c-0.33-0.98-0.5-2.08-0.5-3.31c0-1.9,0.44-3.48,1.33-4.75c0.89-1.27,2.24-1.9,4.06-1.9      c0.86,0,1.64,0.21,2.35,0.63c0.71,0.42,1.22,1.01,1.53,1.76V2.84h3.54v14.92C86.82,19.21,86.86,20.41,86.93,21.35z       M78.33,17.73c0.48,0.96,1.23,1.44,2.26,1.44c0.98,0,1.68-0.44,2.12-1.31c0.44-0.87,0.65-1.87,0.65-2.98      c0-0.68-0.07-1.32-0.22-1.9c-0.15-0.58-0.44-1.11-0.87-1.58c-0.44-0.47-1.01-0.71-1.71-0.71c-1.83,0-2.75,1.4-2.75,4.18      C77.81,16.08,77.98,17.03,78.33,17.73z"/>				</g>			</g>			<polygon class="st3" points="88.54,2.9 94.19,8.55 94.19,2.9    "/>		</g>		<g class="st1">			<text transform="matrix(1 0 0 1 31.3457 17.9965)" class="st5 st6 st7">Treford</text>			<g class="st2">				<polygon class="st8" points="9.85,5.65 9.85,11.06 17.22,11.06 17.22,23.15 22.75,17.74 22.75,11.29 16.99,5.65     "/>				<polygon class="st9" points="18.95,5.65 24.71,11.18 24.71,16.01 29.77,10.83 24.36,5.65     "/>			</g>		</g>		<text transform="matrix(1 0 0 1 90.0454 21.3481)" class="st10 st6 st11">®</text>	</g></g></svg>