<svg width="123" height="53" viewBox="0 0 123 53" fill="none" xmlns="http://www.w3.org/2000/svg">
<path d="M57.5189 42.9667V31.272H53.249V46.349H64.712V42.9667H57.5189Z" fill="black"/>
<path d="M70.8086 34.4805C68.9787 34.4805 66.9963 34.9532 65.6604 35.8377L67.0329 38.6161C67.8304 37.9909 69.0778 37.6035 70.1986 37.6035C71.8151 37.6035 72.6126 38.2715 72.6767 39.4563H70.3557C66.7355 39.4563 65.1709 40.7922 65.1709 42.9454C65.1709 44.9705 66.7218 46.5443 69.5231 46.5443C71.2249 46.5443 72.3869 45.9617 72.9694 44.8424V46.3491H76.7818V39.865C76.7742 36.1671 74.5996 34.4805 70.8086 34.4805ZM72.6812 42.6008C72.3579 43.5264 71.5604 43.958 70.6561 43.958C69.6878 43.958 69.1312 43.4624 69.1312 42.7746C69.1312 42.0625 69.6039 41.5882 70.9184 41.5882H72.6843L72.6812 42.6008Z" fill="black"/>
<path d="M87.3051 30.3721V35.6941C86.5289 34.8752 85.4325 34.4879 84.0753 34.4879C80.8867 34.4879 78.3232 36.7936 78.3232 40.4977C78.3232 44.2017 80.8867 46.5517 84.0753 46.5517C85.582 46.5517 86.7241 46.1186 87.5003 45.193V46.3565H91.3981V30.3721H87.3051ZM84.9323 43.2898C83.5309 43.2898 82.4757 42.2773 82.4757 40.49C82.4757 38.7028 83.5309 37.733 84.9323 37.733C86.3338 37.733 87.3722 38.7226 87.3722 40.49C87.3722 42.2574 86.3155 43.2898 84.9323 43.2898Z" fill="black"/>
<path d="M93.4885 34.6725V46.349H97.5799V34.6725H93.4885ZM95.535 29.0303C94.0268 29.0303 93.0371 29.9773 93.0371 31.2048C93.0371 32.4324 94.0268 33.3809 95.535 33.3809C97.0431 33.3809 98.0328 32.4339 98.0328 31.1347C98.0328 29.9147 97.0416 29.0303 95.535 29.0303Z" fill="black"/>
<path d="M111.62 40.533C111.62 36.6764 108.82 34.4805 105.368 34.4805C101.683 34.4805 98.9492 36.9783 98.9492 40.4902C98.9492 44.0022 101.641 46.5443 105.799 46.5443C108.017 46.5443 109.654 45.8962 110.774 44.6472L108.619 42.4071C107.824 43.0964 107.07 43.4197 105.927 43.4197C104.421 43.4197 103.407 42.7289 103.062 41.5455H111.55C111.582 41.2222 111.62 40.8349 111.62 40.533ZM103.004 39.3923C103.242 38.1632 104.125 37.3885 105.395 37.3885C106.665 37.3885 107.571 38.1632 107.788 39.3923H103.004Z" fill="black"/>
<path d="M116.125 38.2074C116.125 37.7759 116.621 37.3885 117.998 37.3885C119.172 37.383 120.327 37.6797 121.353 38.2501L122.58 35.4702C121.417 34.8251 119.608 34.4805 117.97 34.4805C114.311 34.4805 112.285 36.1579 112.285 38.3569C112.285 43.0308 119.178 41.2436 119.178 42.8173C119.178 43.3114 118.721 43.6118 117.348 43.6118C115.925 43.6118 114.355 43.2046 113.277 42.5367L112.057 45.335C113.199 46.0471 115.245 46.5443 117.228 46.5443C121.017 46.5443 123 44.8668 123 42.7075C122.997 38.0763 116.125 39.8269 116.125 38.2074Z" fill="black"/>
<path d="M106.682 19.5544L109.503 16.5198V14.1089H99.661V17.084H105.029L102.598 19.71V22.1377H104.213C105.691 22.1377 106.293 22.6424 106.293 23.4598C106.293 24.3748 105.437 24.8795 104.135 24.8795C103.02 24.8741 101.922 24.6033 100.933 24.0896C100.759 25.1628 100.29 26.1662 99.5771 26.987C100.918 27.6442 102.627 27.9904 104.257 27.9904C108.361 27.9904 110.189 25.7731 110.189 23.4583C110.183 21.5186 108.978 20.0409 106.682 19.5544Z" fill="black"/>
<path d="M71.9847 14.1089L69.1239 22.8803L66.3791 14.1089H62.8412L59.9636 22.801L57.2187 14.1089H53.2539L57.6762 27.7235H61.7936L64.5141 19.4386L67.1202 27.7235H71.2375L75.6598 14.1089H71.9847Z" fill="black"/>
<path d="M86.3775 22.4717C86.3775 18.9903 83.8491 17.0063 80.7352 17.0063C77.4093 17.0063 74.9404 19.2633 74.9404 22.4336C74.9404 25.604 77.3712 27.899 81.1256 27.899C83.1294 27.899 84.607 27.3149 85.6181 26.188L83.6738 24.1644C83.3478 24.4707 82.9643 24.7094 82.5455 24.8664C82.1267 25.0235 81.6809 25.0959 81.2339 25.0794C79.8736 25.0794 78.9586 24.4572 78.6415 23.3882H86.3043C86.3378 23.0939 86.3775 22.7477 86.3775 22.4717ZM78.6003 21.4409C78.8138 20.3322 79.6113 19.6323 80.7596 19.6323C81.9079 19.6323 82.7237 20.3322 82.9174 21.4409H78.6003Z" fill="black"/>
<path d="M96.2373 17.3798C95.5996 17.1293 94.9201 17.0025 94.235 17.0062C93.0151 17.0062 92.0163 17.3569 91.298 18.0965V13.293H87.6016V27.725H91.1227V26.6743C91.8226 27.5115 92.8535 27.8943 94.235 27.8943C97.0928 27.8943 99.4076 25.7929 99.4076 22.4289C99.4076 19.9188 98.1008 18.1194 96.2373 17.3798ZM93.4558 24.9618C92.2115 24.9618 91.2385 24.0468 91.2385 22.4335C91.2385 20.8201 92.2115 19.9432 93.4558 19.9432C94.7002 19.9432 95.6731 20.8384 95.6731 22.4335C95.6731 24.0285 94.7017 24.9618 93.4558 24.9618Z" fill="black"/>
<path d="M46.5483 49.3303C46.5516 49.9161 46.3808 50.4897 46.0575 50.9782C45.7341 51.4667 45.2729 51.8481 44.7324 52.0739C44.1919 52.2998 43.5965 52.3599 43.0217 52.2467C42.4469 52.1334 41.9188 51.8519 41.5044 51.4379C41.0899 51.0239 40.8079 50.496 40.694 49.9214C40.5802 49.3468 40.6397 48.7513 40.865 48.2105C41.0903 47.6698 41.4712 47.2082 41.9594 46.8843C42.4475 46.5605 43.0209 46.3891 43.6067 46.3918C43.995 46.3835 44.381 46.4538 44.7414 46.5985C45.1019 46.7432 45.4294 46.9593 45.7041 47.2338C45.9789 47.5083 46.1954 47.8355 46.3404 48.1958C46.4855 48.5561 46.5562 48.942 46.5483 49.3303ZM46.0634 49.3303C46.0634 47.9228 45.0249 46.8523 43.6021 46.8523C43.1066 46.8457 42.6204 46.9867 42.2053 47.2575C41.7903 47.5283 41.4653 47.9166 41.2719 48.3728C41.0784 48.829 41.0251 49.3325 41.1189 49.8191C41.2128 50.3057 41.4493 50.7534 41.7986 51.105C42.1478 51.4566 42.5938 51.6962 43.0798 51.7933C43.5657 51.8904 44.0696 51.8406 44.5271 51.6502C44.9846 51.4598 45.3751 51.1375 45.6487 50.7243C45.9223 50.3112 46.0667 49.8259 46.0634 49.3303ZM44.4561 49.8656L45.1926 50.9956H44.4729L43.8202 49.9906H43.076V50.9956H42.3563V47.6971H43.7287C44.5979 47.6971 45.1179 48.1546 45.1179 48.8439C45.1308 49.0625 45.0736 49.2795 44.9545 49.4633C44.8355 49.647 44.6609 49.788 44.4561 49.8656V49.8656ZM43.686 49.434C44.1557 49.434 44.4225 49.2175 44.4225 48.8484C44.4225 48.4794 44.1557 48.2705 43.686 48.2705H43.0669V49.434H43.686Z" fill="black"/>
<path d="M35.3823 9.14353L35.3228 9.10694C33.2607 7.85646 31.0159 6.93597 28.6695 6.37882L28.822 5.74903L29.371 3.45246L30.1868 0H16.3495L17.173 3.45246L17.7204 5.74903L17.8729 6.37882C15.5278 6.93685 13.2841 7.85729 11.2227 9.10694L11.1617 9.14506C10.0731 9.80743 9.04075 10.5582 8.0752 11.3898L16.0049 19.3195C17.3281 18.3274 18.8412 17.6178 20.4501 17.2349L22.4935 25.8096L22.7893 27.0494L23.259 29.0165L23.7287 27.0448L24.0215 25.8172L26.0695 17.2333C27.6795 17.6174 29.1935 18.3279 30.5177 19.321L32.9302 16.907L35.3701 14.4671L38.452 11.3867C37.4916 10.5566 36.4649 9.80638 35.3823 9.14353V9.14353Z" fill="url(#paint0_linear_836_345)"/>
<path d="M35.3823 9.14353L35.3228 9.10694C33.2607 7.85646 31.0159 6.93597 28.6695 6.37882L28.822 5.74903L29.371 3.45246L30.1868 0H16.3495L17.173 3.45246L17.7204 5.74903L17.8729 6.37882C15.5278 6.93685 13.2841 7.85729 11.2227 9.10694L11.1617 9.14506C10.0731 9.80743 9.04075 10.5582 8.0752 11.3898L16.0049 19.3195C17.3281 18.3274 18.8412 17.6178 20.4501 17.2349L22.4935 25.8096L22.7893 27.0494L23.259 29.0165L23.7287 27.0448L24.0215 25.8172L26.0695 17.2333C27.6795 17.6174 29.1935 18.3279 30.5177 19.321L32.9302 16.907L35.3701 14.4671L38.452 11.3867C37.4916 10.5566 36.4649 9.80638 35.3823 9.14353V9.14353Z" fill="url(#paint1_linear_836_345)"/>
<path d="M43.1893 16.9739L43.1542 16.9129C42.4896 15.827 41.7379 14.7968 40.9065 13.8325L37.8246 16.9129L35.3847 19.3528L32.9722 21.7653C33.2854 22.184 33.5712 22.6226 33.8277 23.0782L30.8404 24.9798C30.668 24.8483 30.4561 24.779 30.2394 24.7832C30.0226 24.7873 29.8136 24.8647 29.6463 25.0027L29.6174 25.024C29.605 25.02 29.5932 25.0143 29.5823 25.0073L25.6845 22.8724L25.5198 23.5662L25.7577 23.6958C26.9279 24.3363 28.097 24.9742 29.2651 25.6096L29.288 25.6233C29.2871 25.6294 29.2871 25.6356 29.288 25.6416C29.2746 25.7429 29.2746 25.8454 29.288 25.9466C29.288 25.9466 29.288 25.9573 29.288 25.9634L28.7588 26.3019L28.6063 26.3995L23.6121 29.579L23.2782 29.791L22.9168 29.5607L17.241 25.9649C17.241 25.9497 17.241 25.936 17.241 25.9207C17.241 25.8216 17.241 25.7271 17.241 25.6295H17.2532L18.3969 25.0058C18.9397 24.7119 19.4816 24.4166 20.0224 24.1198L21.0182 23.5769L20.852 22.8815L16.9207 25.0347C16.7802 24.9024 16.6022 24.8167 16.4111 24.7894C16.2201 24.7621 16.0252 24.7945 15.8533 24.8822C15.7967 24.9096 15.7427 24.9417 15.6916 24.9783L12.7073 23.0889C12.9665 22.6284 13.2554 22.1853 13.572 21.7622L5.64227 13.8325C4.8104 14.7964 4.05864 15.8266 3.39451 16.9129L3.35791 16.9739C1.16114 20.61 0 24.7773 0 29.0255C0 33.2736 1.16114 37.441 3.35791 41.0771L3.39451 41.135C4.05631 42.2218 4.80604 43.2526 5.63617 44.2169C6.0113 44.6531 6.40271 45.075 6.81037 45.4826C7.21804 45.8903 7.64045 46.2827 8.0776 46.6599C9.0407 47.4916 10.0704 48.2429 11.1564 48.9061C11.1776 48.9168 11.198 48.9291 11.2174 48.9427C13.2777 50.1935 15.5211 51.1141 17.8662 51.6708C21.4176 52.5106 25.1159 52.5106 28.6673 51.6708C31.0138 51.1141 33.2587 50.1936 35.3206 48.9427L35.3801 48.9061C36.4668 48.2425 37.4976 47.4913 38.462 46.6599C38.8981 46.2837 39.32 45.8913 39.7277 45.4826C40.1364 45.0755 40.5268 44.6531 40.905 44.2169C41.7352 43.2519 42.4859 42.2213 43.1497 41.135C43.1619 41.1167 43.1725 41.0969 43.1847 41.0771C45.3825 37.4413 46.5442 33.2739 46.5442 29.0255C46.5442 24.7771 45.3825 20.6096 43.1847 16.9739H43.1893ZM11.1656 29.024C11.161 27.183 11.5783 25.3656 12.3855 23.7111L15.3211 25.5715C15.3077 25.6429 15.302 25.7155 15.3043 25.788C15.3007 25.9802 15.3577 26.1686 15.4671 26.3265C15.5766 26.4845 15.7331 26.6039 15.9143 26.6679C15.9231 26.6704 15.9314 26.6745 15.9387 26.6801C15.9387 26.6801 15.9387 26.6969 15.9387 26.7122C15.9387 28.5807 15.9387 30.4477 15.9387 32.3133V33.7452C15.7614 33.8055 15.6063 33.9174 15.4933 34.0666C15.3802 34.2158 15.3144 34.3954 15.3043 34.5824C15.2973 34.6709 15.3004 34.7599 15.3134 34.8477L13.4134 36.06C11.9437 34.0086 11.1553 31.5475 11.1595 29.024H11.1656ZM22.9275 41.1305C19.837 41.0454 16.897 39.7774 14.7141 37.588C14.4047 37.2805 14.1129 36.9557 13.8403 36.6151L15.6931 35.4379C15.7236 35.4577 15.7541 35.4775 15.7862 35.4958C15.96 35.6046 16.1642 35.6545 16.3686 35.638C16.573 35.6215 16.7666 35.5396 16.9207 35.4043L22.3053 38.3429V38.3703C22.2947 38.4775 22.2978 38.5856 22.3144 38.6921C22.3478 38.851 22.4214 38.9986 22.5282 39.1209C22.635 39.2432 22.7715 39.336 22.9244 39.3905L22.9275 41.1305ZM16.6325 33.7436V26.6786C16.7225 26.6569 16.8052 26.6117 16.8719 26.5475L22.7612 30.282C22.8249 30.3118 22.8781 30.3602 22.9137 30.4208C22.9324 30.4694 22.9402 30.5214 22.9366 30.5733V37.559C22.8309 37.6014 22.7322 37.6595 22.6438 37.7314L17.2486 34.7943V34.7638C17.2499 34.5635 17.1921 34.3672 17.0824 34.1996L17.0214 34.1081C16.922 33.9557 16.7863 33.8305 16.6264 33.7436H16.6325ZM29.3703 34.3536C29.3243 34.4244 29.2999 34.5071 29.3002 34.5915C29.3002 34.6586 29.3002 34.7257 29.3002 34.7943C29.3002 34.7943 29.291 34.7943 29.2864 34.7943C28.6307 35.1573 27.9745 35.5172 27.3177 35.874L25.8401 36.6792L23.9309 37.7222C23.9309 37.7222 23.9232 37.7222 23.9187 37.7222L23.8668 37.6932C23.7784 37.6475 23.6991 37.6033 23.6259 37.556V37.3029C23.6259 37.1778 23.6259 37.0543 23.6259 36.9277V30.401L23.94 30.2012L29.6784 26.5414C29.734 26.5946 29.804 26.6306 29.8796 26.6451H29.9162C29.9206 26.6887 29.9206 26.7326 29.9162 26.7762V26.7762C29.9162 28.6214 29.9162 30.4671 29.9162 32.3133V33.7177L29.7424 33.8123C29.6947 33.8385 29.6543 33.8762 29.625 33.9221C29.5554 33.9721 29.4966 34.0355 29.4518 34.1086C29.407 34.1816 29.3773 34.2628 29.3642 34.3475L29.3703 34.3536ZM31.8422 37.5941C31.4341 38.0033 30.9974 38.3829 30.5354 38.7302C28.5362 40.2293 26.1207 41.0702 23.6228 41.1366V39.3874C23.7735 39.3322 23.9075 39.2392 24.0122 39.1175C24.1168 38.9958 24.1885 38.8493 24.2206 38.6921C24.2379 38.5847 24.2425 38.4757 24.2343 38.3673C24.2351 38.3586 24.2351 38.35 24.2343 38.3413C26.0226 37.3633 27.8179 36.3833 29.6204 35.4013C29.8177 35.5679 30.0718 35.6515 30.3295 35.6346C30.5145 35.6224 30.692 35.5567 30.8404 35.4455L32.7023 36.6334C32.4315 36.9674 32.1424 37.2861 31.8361 37.588L31.8422 37.5941ZM33.1247 36.0844L31.2185 34.8645C31.2185 34.8538 31.2277 34.8431 31.2307 34.8325L31.249 34.7776V34.5351L31.2353 34.5015C31.2216 34.468 31.2094 34.4329 31.1957 34.3979C31.1659 34.3109 31.1297 34.2263 31.0874 34.1447C30.9775 33.9573 30.8045 33.8152 30.5994 33.7436V32.2843C30.5994 30.4269 30.5994 28.5695 30.5994 26.7122C30.5994 26.6969 30.5994 26.6862 30.5994 26.6801L30.6208 26.671C30.7688 26.6173 30.9008 26.5269 31.0043 26.4082C31.1078 26.2895 31.1795 26.1464 31.2124 25.9924C31.216 25.9774 31.2217 25.9631 31.2292 25.9497L31.2506 25.8826V25.6447L31.2277 25.5776V25.5654L34.1525 23.6989C35.1132 25.6635 35.5244 27.8515 35.3427 30.0309C35.1609 32.2103 34.3929 34.2999 33.1201 36.0783L33.1247 36.0844ZM23.6152 23.5982L23.5999 23.6623H23.6152V23.5982ZM22.9214 23.5815V23.6623H22.9412L22.9214 23.5815Z" fill="url(#paint2_linear_836_345)"/>
<defs>
<linearGradient id="paint0_linear_836_345" x1="8.07977" y1="14.5113" x2="38.4642" y2="14.5113" gradientUnits="userSpaceOnUse">
<stop stop-color="#7D0BFE"/>
<stop offset="1" stop-color="#B072D2"/>
</linearGradient>
<linearGradient id="paint1_linear_836_345" x1="8.07977" y1="14.5113" x2="38.4642" y2="14.5113" gradientUnits="userSpaceOnUse">
<stop stop-color="#7D0BFE"/>
<stop offset="1" stop-color="#B072D2"/>
</linearGradient>
<linearGradient id="paint2_linear_836_345" x1="12893.7" y1="27929" x2="27102.2" y2="27929" gradientUnits="userSpaceOnUse">
<stop stop-color="#7D0BFE"/>
<stop offset="1" stop-color="#B072D2"/>
</linearGradient>
</defs>
</svg>
