
<svg width="5631" height="1105" viewBox="0 0 5631 1105" fill="none" xmlns="http://www.w3.org/2000/svg">
<path d="M1926.31 897.611H1361.41V757.824L1728.1 313.156H1380V173.369H1917.64V313.156L1549.71 757.824H1926.31V897.611ZM2210 910.866C2167.88 910.866 2129.48 903.636 2096.03 890.38C2062.58 877.125 2034.09 857.844 2011.79 832.537C1988.26 808.436 1970.91 778.31 1959.76 743.363C1947.37 708.416 1941.18 668.649 1941.18 625.267C1941.18 581.885 1947.37 543.323 1958.52 508.376C1969.67 473.429 1987.02 443.303 2009.31 417.996C2031.61 393.895 2058.87 374.614 2092.32 360.153C2124.52 346.898 2161.69 340.872 2203.81 340.872C2250.88 340.872 2290.53 348.103 2322.74 363.769C2356.18 378.229 2383.44 398.715 2404.5 424.022C2425.56 450.533 2440.42 479.454 2450.33 513.196C2460.24 546.938 2463.96 581.885 2463.96 618.037V663.829H2104.7V672.264C2104.7 708.416 2114.61 736.133 2134.44 757.824C2154.26 778.31 2186.47 789.155 2228.59 789.155C2260.79 789.155 2288.05 781.925 2309.11 769.874C2328.93 756.619 2348.75 742.158 2366.09 724.082L2445.38 819.282C2420.6 848.203 2388.39 869.894 2347.51 886.765C2307.87 902.431 2262.03 910.866 2210 910.866ZM2207.53 454.148C2175.32 454.148 2150.54 463.789 2131.96 484.275C2113.38 504.761 2104.7 531.272 2104.7 566.219V573.449H2301.68V565.014C2301.68 531.272 2293 504.761 2278.14 484.275C2263.27 463.789 2239.73 454.148 2207.53 454.148ZM2860.38 806.026H2855.43C2851.71 820.487 2844.28 834.948 2835.61 846.998C2825.69 860.254 2814.55 871.099 2802.16 880.74C2788.53 890.38 2773.66 897.611 2756.32 902.431C2740.22 907.251 2722.87 910.866 2705.53 910.866C2633.68 910.866 2580.41 885.56 2544.48 837.358C2507.32 787.95 2489.98 718.057 2489.98 625.267C2489.98 532.477 2507.32 461.379 2544.48 413.176C2580.41 364.974 2633.68 340.872 2705.53 340.872C2741.46 340.872 2773.66 350.513 2802.16 369.794C2829.41 389.075 2847.99 413.176 2855.43 444.508H2860.38V129.987H3018.95V897.611H2860.38V806.026ZM2757.56 785.54C2787.29 785.54 2812.07 778.31 2831.89 763.849C2850.47 750.593 2860.38 730.107 2860.38 706.006V544.528C2860.38 520.427 2850.47 499.941 2831.89 486.685C2812.07 472.224 2787.29 464.994 2757.56 464.994C2727.83 464.994 2703.05 474.634 2683.23 495.12C2663.41 515.606 2653.5 543.323 2653.5 578.27V672.264C2653.5 707.211 2663.41 734.928 2683.23 755.414C2703.05 775.9 2727.83 785.54 2757.56 785.54ZM3450.06 806.026H3445.1C3441.39 820.487 3433.95 834.948 3425.28 846.998C3415.37 860.254 3404.22 871.099 3390.59 880.74C3378.21 890.38 3363.34 897.611 3346 902.431C3329.89 907.251 3312.55 910.866 3295.21 910.866C3223.35 910.866 3170.09 885.56 3132.92 837.358C3097 787.95 3079.65 718.057 3079.65 625.267C3079.65 532.477 3097 461.379 3132.92 413.176C3170.09 364.974 3223.35 340.872 3295.21 340.872C3331.13 340.872 3363.34 350.513 3390.59 369.794C3419.09 389.075 3437.67 413.176 3445.1 444.508H3450.06V129.987H3608.63V897.611H3450.06V806.026ZM3347.24 785.54C3376.97 785.54 3401.74 778.31 3421.57 763.849C3440.15 750.593 3450.06 730.107 3450.06 706.006V544.528C3450.06 520.427 3440.15 499.941 3421.57 486.685C3401.74 472.224 3376.97 464.994 3347.24 464.994C3317.5 464.994 3292.73 474.634 3272.91 495.12C3253.09 515.606 3243.18 543.323 3243.18 578.27V672.264C3243.18 707.211 3253.09 734.928 3272.91 755.414C3292.73 775.9 3317.5 785.54 3347.24 785.54ZM3696.58 352.923H3853.91V444.508H3860.11C3867.54 413.176 3884.88 389.075 3913.38 369.794C3941.87 350.513 3974.08 340.872 4010 340.872C4080.61 340.872 4135.12 364.974 4171.05 413.176C4206.97 461.379 4225.56 532.477 4225.56 625.267C4225.56 718.057 4206.97 787.95 4171.05 837.358C4135.12 885.56 4080.61 910.866 4010 910.866C3991.42 910.866 3974.08 907.251 3957.97 902.431C3941.87 897.611 3927 890.38 3913.38 880.74C3899.75 871.099 3888.6 860.254 3879.93 846.998C3870.02 834.948 3863.82 820.487 3860.11 806.026H3853.91V1104.88H3696.58V352.923ZM3957.97 785.54C3987.7 785.54 4012.48 775.9 4032.3 755.414C4050.88 734.928 4060.79 707.211 4060.79 672.264V578.27C4060.79 543.323 4050.88 515.606 4032.3 495.12C4012.48 474.634 3987.7 464.994 3957.97 464.994C3928.24 464.994 3903.47 472.224 3883.64 486.685C3863.82 499.941 3853.91 520.427 3853.91 544.528V706.006C3853.91 730.107 3863.82 750.593 3883.64 763.849C3903.47 778.31 3928.24 785.54 3957.97 785.54ZM4700.02 897.611C4671.53 897.611 4647.99 889.175 4629.41 872.305C4609.59 854.229 4598.44 831.332 4593.49 802.411H4587.29C4578.62 837.358 4558.8 863.869 4530.31 883.15C4500.57 901.226 4464.65 910.866 4422.53 910.866C4366.78 910.866 4323.42 895.201 4293.69 866.279C4263.96 837.358 4249.09 800.001 4249.09 751.798C4249.09 695.16 4270.15 651.778 4313.51 624.062C4355.63 596.345 4415.1 581.885 4488.19 581.885H4577.38V548.143C4577.38 521.632 4569.95 501.146 4556.32 485.48C4541.45 469.814 4517.92 461.379 4484.47 461.379C4453.5 461.379 4428.72 468.609 4410.14 481.865C4391.56 495.12 4375.45 509.581 4364.3 526.452L4270.15 444.508C4292.45 411.971 4320.95 386.665 4355.63 368.589C4390.32 349.308 4437.39 340.872 4495.62 340.872C4576.14 340.872 4635.61 357.743 4675.25 391.485C4714.89 425.227 4734.71 474.634 4734.71 539.708V778.31H4787.98V897.611H4700.02ZM4480.75 803.616C4508.01 803.616 4530.31 797.591 4548.89 786.745C4567.47 775.9 4577.38 757.824 4577.38 733.722V669.854H4500.57C4438.63 669.854 4407.66 689.135 4407.66 730.107V745.773C4407.66 765.054 4413.86 780.72 4426.25 789.155C4439.87 798.796 4457.21 803.616 4480.75 803.616ZM5167.06 352.923H5314.48L5098.92 981.965C5084.06 1024.14 5064.23 1055.47 5038.22 1074.75C5012.2 1095.24 4975.04 1104.88 4926.73 1104.88H4828.86V985.58H4934.16L4952.74 925.327L4757.01 352.923H4914.34L4996.1 607.191L5036.98 765.054H5043.18L5084.06 607.191L5167.06 352.923Z" fill="#007DE8"/>
<path d="M125.889 647.133L261.484 517.225L248.871 512.414H247.82C243.615 510.008 166.883 479.937 166.883 479.937C-28.6259 422.2 -31.7793 68.5624 199.468 0H892.159C1119.2 24.057 1177.01 271.844 992.016 460.691C937.358 514.82 875.341 565.339 834.347 603.831C940.511 645.93 1105.5 672.264 1105.5 897.611C1099.19 1015.49 1014.09 1086.17 937.358 1100.61L262.536 1101.81C10.2657 1137.9 -106.409 848.009 125.889 647.133ZM364.495 418.592L664.065 132.313H200.519C40.7484 292.292 231.002 407.766 364.495 418.592ZM727.133 700.059C625.174 793.881 513.754 894.92 425.46 973.106L928.949 965.888C1005.68 949.049 1007.78 815.532 954.175 791.475C879.546 758.998 802.814 730.13 727.133 700.059ZM263.587 967.091L938.409 300.712C1013.04 221.324 885.852 76.9824 808.069 153.965L146.912 786.664C50.2084 905.746 184.752 1039.26 263.587 967.091Z" fill="#007DE8"/>
<path d="M5559.97 465.243L5504.62 340.282H5527.03L5565.74 431.965L5604.45 340.282H5626.86L5571.51 465.243H5559.97ZM5500.54 465.243V340.282H5522.28V465.243H5500.54ZM5609.21 465.243V340.282H5630.94V465.243H5609.21ZM5419.05 465.243V351.148H5440.78V465.243H5419.05ZM5381.02 359.298V340.282H5478.81V359.298H5381.02Z" fill="#007DE8"/>
</svg>
