<svg width="131" height="131" viewBox="0 0 131 131" fill="none" xmlns="http://www.w3.org/2000/svg">
<g clip-path="url(#clip0_87_69142)">
<path d="M19.999 39.8398C17.3548 41.0703 16.2048 44.2414 17.4366 46.8881L35.0795 84.799C36.3112 87.4457 39.4769 88.606 42.121 87.3754L57.7434 80.1051L58.6152 90.0418L50.8341 93.6624C50.5386 93.7987 50.3098 94.047 50.1972 94.3521C50.0847 94.6572 50.0982 94.9947 50.235 95.29C50.3717 95.5864 50.6212 95.8166 50.9278 95.9284C51.2349 96.0401 51.5735 96.0249 51.869 95.8861L97.1811 74.7988C97.4757 74.6606 97.7021 74.411 97.8128 74.1056C97.9226 73.7999 97.9069 73.4628 97.7688 73.1687C97.4831 72.5586 96.7583 72.2933 96.1462 72.5751L88.3545 76.2012L81.3157 69.1345L96.9355 61.8653C99.5797 60.6348 100.733 57.4645 99.5013 54.8179L81.8589 16.9068C80.6272 14.2601 77.4581 13.0989 74.814 14.3295L19.999 39.8398ZM21.0297 42.0545L75.8449 16.5447C77.2937 15.8705 78.9595 16.4832 79.6379 17.941L94.3692 49.5956L34.3893 77.509L19.6579 45.8543C18.9796 44.3967 19.5815 42.7285 21.0298 42.0545L21.0297 42.0545ZM42.2403 40.6205L42.2398 40.6208C41.9571 40.7807 41.7495 41.0462 41.6629 41.3591L38.1097 54.0644L38.1092 54.0646C37.948 54.6451 38.2328 55.2569 38.7806 55.5074L50.7923 60.9776L50.7926 60.9769C51.0878 61.1122 51.4251 61.1241 51.7294 61.0108C52.0343 60.8973 52.281 60.6679 52.4161 60.3722C52.5511 60.0765 52.5635 59.739 52.4497 59.4348C52.3362 59.13 52.1068 58.8833 51.8111 58.7482L40.757 53.7088L44.0238 42.015C44.1109 41.7018 44.0697 41.367 43.9098 41.0843C43.7504 40.8014 43.4841 40.5935 43.171 40.5064C42.8578 40.4193 42.5229 40.4606 42.2397 40.6207L42.2403 40.6205ZM61.0904 31.8481L61.0899 31.8483C60.7862 31.9619 60.54 32.1911 60.4052 32.486C60.2702 32.7817 60.2578 33.1192 60.3716 33.4234C60.4849 33.7278 60.7145 33.975 61.0102 34.11L72.06 39.1412L68.7975 50.8432C68.7104 51.1564 68.7514 51.4908 68.9115 51.7739C69.0709 52.0569 69.3371 52.2647 69.6501 52.3513C69.9633 52.4384 70.2979 52.3979 70.5811 52.2377C70.8637 52.0778 71.0718 51.8121 71.1584 51.4992L74.7064 38.7878C74.8682 38.2076 74.5835 37.5958 74.0351 37.3456L62.0287 31.8814C61.7328 31.7458 61.395 31.7342 61.0899 31.8484L61.0904 31.8481ZM54.226 35.4202C53.6803 35.632 53.361 36.1992 53.4632 36.7753L56.9421 56.5108L56.9418 56.5103C56.9979 56.8304 57.1793 57.1152 57.4459 57.3018C57.7123 57.4878 58.0417 57.5607 58.3621 57.5039C58.683 57.4481 58.9684 57.267 59.155 57.0004C59.3421 56.7336 59.4152 56.4034 59.3577 56.0827L55.8735 36.342L55.8742 36.3423C55.7536 35.68 55.1218 35.2387 54.4589 35.3542C54.3792 35.3684 54.3008 35.3904 54.2259 35.4198L54.226 35.4202ZM35.4231 79.7316L95.403 51.8183L97.2805 55.8527C97.9589 57.3103 97.351 58.9709 95.9023 59.6451L41.0871 85.155C39.6388 85.8289 37.9788 85.2238 37.3005 83.7661L35.4231 79.7316ZM60.1097 79.0046L78.9572 70.2333L85.996 77.3001L60.9835 88.9403L60.1097 79.0046Z" fill="#FFB800"/>
</g>
<defs>
<clipPath id="clip0_87_69142">
<rect width="98" height="98" fill="white" transform="translate(0 41.3488) rotate(-24.9562)"/>
</clipPath>
</defs>
</svg>
