<svg width="146" height="146" viewBox="0 0 146 146" fill="none" xmlns="http://www.w3.org/2000/svg">
<g clip-path="url(#clip0_87_69198)">
<path d="M95.5372 91.6765C97.3705 92.6211 99.5038 92.7983 101.468 92.1703C103.433 91.5418 105.067 90.1587 106.011 88.3252L121.207 58.8323C122.152 56.999 122.33 54.8655 121.701 52.9015C121.073 50.937 119.69 49.3032 117.857 48.3586L66.3976 21.8445C64.5643 20.8999 62.4313 20.7223 60.4668 21.3508C58.5026 21.9788 56.8684 23.362 55.9238 25.1953L40.7277 54.6882C39.7831 56.5215 39.6052 58.655 40.2337 60.6196C40.8625 62.5835 42.2449 64.2179 44.0782 65.1625L69.0396 78.0238L63.2621 89.237L51.1274 82.9846C50.7031 82.766 50.1819 82.9327 49.9633 83.357C49.7447 83.7814 49.9117 84.302 50.336 84.5206L76.1423 97.8172C76.5666 98.0358 77.0875 97.8696 77.3061 97.4453C77.5248 97.021 77.358 96.4998 76.9337 96.2812L64.799 90.0289L70.5766 78.8157L95.5372 91.6765ZM42.2633 55.4803L57.4589 25.9871C58.1937 24.561 59.4644 23.4855 60.9922 22.9966C62.52 22.5079 64.1794 22.6464 65.6051 23.381L117.064 49.895C118.49 50.6296 119.566 51.9005 120.055 53.4283C120.543 54.9561 120.405 56.615 119.67 58.0412L104.474 87.5341C103.739 88.9602 102.469 90.0357 100.941 90.5246C99.413 91.0133 97.7536 90.8748 96.3279 90.1402L44.8689 63.6262C43.4432 62.8916 42.3673 61.6207 41.8785 60.0929C41.3897 58.5651 41.5279 56.9062 42.2628 55.48L42.2633 55.4803Z" fill="#FFB800"/>
<path d="M98.2563 58.6706C98.1081 58.224 97.6302 57.9778 97.1811 58.1165L93.2239 59.3821L94.8462 56.2335C94.9514 56.0294 94.971 55.7927 94.9016 55.5746C94.8318 55.3562 94.6779 55.1746 94.4743 55.0697L93.7832 54.7136C94.5435 52.1025 94.3746 49.309 93.3057 46.8085C92.2365 44.3085 90.3338 42.2562 87.9213 41.0015L87.2296 40.6451C84.8077 39.4088 82.0321 39.0506 79.3757 39.6311C76.719 40.212 74.3462 41.696 72.6619 43.8309L71.9702 43.4745C71.5464 43.2562 71.0253 43.4229 70.8066 43.8472L65.5039 54.1389C65.399 54.3425 65.3791 54.5797 65.449 54.798C65.5186 55.0156 65.6722 55.1978 65.8758 55.3027L66.4137 55.5798L65.8597 56.6551C64.7113 58.8681 64.6934 61.4976 65.8125 63.7258L67.5089 67.2243C68.2725 68.6699 69.4762 69.8352 70.9466 70.5501L73.0205 71.6187C74.4761 72.3829 76.1387 72.6606 77.7638 72.4104L81.5973 71.7612C84.0612 71.3792 86.1922 69.8384 87.3277 67.6188L87.842 66.6207L88.3799 66.8978C88.5834 67.0027 88.821 67.022 89.039 66.9527C89.2569 66.8826 89.4385 66.7287 89.5434 66.5251L91.3241 63.0691L92.5899 67.0257L92.5905 67.026C92.7777 67.4126 93.2215 67.6026 93.6312 67.472C94.0406 67.3406 94.2914 66.9288 94.2197 66.5048L92.5815 61.3839L97.6625 59.8229C97.9029 59.7617 98.1056 59.601 98.2194 59.3803C98.3328 59.1601 98.3462 58.9013 98.2563 58.6705L98.2563 58.6706ZM88.4033 64.9656L80.4159 60.8501L79.995 57.3288L83.1609 51.1843L92.9146 56.2099L88.4033 64.9656ZM71.947 45.4064L81.7013 50.4322L78.5354 56.5767L75.4236 58.2778L67.4357 54.1621L71.947 45.4064ZM86.4387 42.1814L87.1298 42.5375L87.1295 42.538C89.1441 43.5767 90.7471 45.2685 91.6765 47.3359C92.6056 49.4037 92.8068 51.7252 92.2465 53.9219L74.2743 44.6617C75.7286 42.9418 77.7192 41.7613 79.9257 41.3119C82.1325 40.8618 84.427 41.1681 86.4377 42.1817L86.4387 42.1814ZM85.8288 66.9433C84.943 68.6795 83.274 69.882 81.3462 70.1734L77.5127 70.8226C76.2566 71.0039 74.9752 70.7857 73.8493 70.1982L71.6988 69.0901C70.5675 68.5147 69.646 67.5978 69.0639 66.4695L67.3675 62.971C66.4865 61.2322 66.4968 59.1752 67.396 57.4459L67.95 56.3707L75.0931 60.0511C75.3347 60.1756 75.6212 60.1788 75.8655 60.0599L78.433 58.6614L78.7844 61.5639C78.8299 61.8321 78.9988 62.0635 79.2404 62.188L86.383 65.8682L85.8288 66.9433Z" fill="#FFB800"/>
</g>
<defs>
<clipPath id="clip0_87_69198">
<rect width="108" height="108" fill="white" transform="translate(49.4668) rotate(27.2596)"/>
</clipPath>
</defs>
</svg>
