<svg width="55" height="55" viewBox="0 0 55 55" fill="none" xmlns="http://www.w3.org/2000/svg">
<g clip-path="url(#clip0_536_1195)">
<path d="M47.7599 22.8396C47.7599 38.6577 27.4224 52.216 27.4224 52.216C27.4224 52.216 7.08496 38.6577 7.08496 22.8396C7.08496 17.4458 9.22765 12.2729 13.0417 8.4589C16.8557 4.64489 22.0286 2.5022 27.4224 2.5022C32.8162 2.5022 37.9891 4.64489 41.8032 8.4589C45.6172 12.2729 47.7599 17.4458 47.7599 22.8396Z" stroke="white" stroke-width="3.8738" stroke-linecap="round" stroke-linejoin="round"/>
<path d="M27.4227 29.6188C31.1667 29.6188 34.2019 26.5837 34.2019 22.8397C34.2019 19.0957 31.1667 16.0605 27.4227 16.0605C23.6787 16.0605 20.6436 19.0957 20.6436 22.8397C20.6436 26.5837 23.6787 29.6188 27.4227 29.6188Z" stroke="white" stroke-width="3.8738" stroke-linecap="round" stroke-linejoin="round"/>
</g>
<defs>
<clipPath id="clip0_536_1195">
<rect width="54.2332" height="54.2332" fill="white" transform="translate(0.305664 0.242676)"/>
</clipPath>
</defs>
</svg>
