<svg width="90" height="90" viewBox="0 0 90 90" fill="none" xmlns="http://www.w3.org/2000/svg">
<rect width="90" height="90" fill="#5D5CD6"/>
<path d="M90 45C90 69.8528 69.8528 90 45 90C20.1472 90 0 69.8528 0 45C0 20.1472 20.1472 0 45 0C69.8528 0 90 20.1472 90 45Z" fill="#5D5CD6"/>
<path d="M27.4144 68.7779H70.9935C72.4776 68.7779 73.6801 70.2511 73.6801 72.069C73.6801 73.8862 72.4776 75.3594 70.9935 75.3594H20.0266C17.2392 75.3594 15.7682 71.3164 17.6325 68.7779L48.619 26.5675C49.532 25.3243 51.0603 25.1168 52.1728 26.0856C53.482 27.2249 53.6881 29.5066 52.6148 30.9689L26.5675 66.4505C25.9086 67.3482 26.4289 68.7779 27.4144 68.7779Z" fill="#0DBA67"/>
<path d="M63.0279 21.7822H21.4866C20.0032 21.7822 18.8 20.309 18.8 18.4911C18.8 16.6732 20.0032 15.2 21.4866 15.2H70.4164C73.2031 15.2 74.6742 19.2437 72.8098 21.7822L41.8233 63.9919C40.9103 65.2358 39.382 65.4426 38.2694 64.4738C36.9603 63.3351 36.7542 61.0528 37.8275 59.5912L63.8748 24.1096C64.5338 23.2119 64.0134 21.7822 63.0279 21.7822Z" fill="#FFB800"/>
</svg>
