<svg width="127" height="127" viewBox="0 0 127 127" fill="none" xmlns="http://www.w3.org/2000/svg">
<g clip-path="url(#clip0_87_69144)">
<path d="M99.3883 70.7053C100.423 69.2184 100.865 67.3291 100.41 65.4342C99.5653 61.9155 96.0155 59.7406 92.4968 60.5857C88.9781 61.4308 86.8032 64.9806 87.6483 68.4993C88.1034 70.3942 89.3555 71.8766 90.9527 72.7313C87.8103 75.1877 86.2006 79.3322 87.1912 83.4571L87.8043 86.0095C87.9738 86.7154 88.6811 87.1487 89.387 86.9792L107.254 82.6881C107.96 82.5186 108.393 81.8113 108.224 81.1054L107.611 78.553C106.62 74.4281 103.304 71.4667 99.3883 70.7053V70.7053ZM90.2007 67.8862C89.6937 65.7753 90.9989 63.6451 93.1098 63.1381C95.2207 62.6311 97.351 63.9363 97.8579 66.0472C98.3649 68.1581 97.0598 70.2884 94.9488 70.7953C92.8379 71.3023 90.7077 69.9972 90.2007 67.8862ZM105.365 80.4422L90.0502 84.1203L89.7437 82.8441C88.7294 78.6212 91.339 74.362 95.5619 73.3478C99.7847 72.3336 104.044 74.9431 105.058 79.166L105.365 80.4422Z" fill="#15C974"/>
<path d="M33.2327 100.465L51.0996 96.1742C51.8055 96.0047 52.2388 95.2974 52.0693 94.5915L51.4563 92.0391C50.4656 87.9142 47.1493 84.9528 43.234 84.1915C44.2689 82.7046 44.7112 80.8152 44.2561 78.9203C43.411 75.4016 39.8612 73.2267 36.3425 74.0718C32.8238 74.9169 30.6489 78.4667 31.494 81.9854C31.9491 83.8803 33.2012 85.3628 34.7985 86.2174C31.656 88.6739 30.0463 92.8184 31.0369 96.9432L31.65 99.4956C31.8195 100.202 32.5268 100.635 33.2327 100.465ZM34.0464 81.3724C33.5394 79.2615 34.8446 77.1312 36.9555 76.6242C39.0664 76.1173 41.1967 77.4224 41.7037 79.5333C42.2106 81.6443 40.9055 83.7745 38.7945 84.2815C36.6836 84.7885 34.5534 83.4833 34.0464 81.3724ZM33.5894 96.3302C32.5751 92.1073 35.1847 87.8481 39.4076 86.8339C43.6304 85.8197 47.8897 88.4292 48.9039 92.6521L49.2104 93.9283L33.8959 97.6064L33.5894 96.3302Z" fill="#15C974"/>
<path d="M20.6663 48.1408L38.5332 43.8497C39.2391 43.6801 39.6724 42.9728 39.5029 42.2669L38.8899 39.7145C37.8992 35.5897 34.5829 32.6283 30.6676 31.8669C31.7025 30.38 32.1448 28.4907 31.6897 26.5958C30.8446 23.0771 27.2948 20.9022 23.7761 21.7473C20.2574 22.5923 18.0825 26.1421 18.9276 29.6608C19.3827 31.5558 20.6348 33.0382 22.232 33.8929C19.0896 36.3493 17.4799 40.4938 18.4705 44.6187L19.0835 47.1711C19.2531 47.877 19.9604 48.3103 20.6663 48.1408ZM21.48 29.0478C20.973 26.9369 22.2782 24.8067 24.3891 24.2997C26.5 23.7927 28.6303 25.0978 29.1372 27.2088C29.6442 29.3197 28.3391 31.4499 26.2281 31.9569C24.1172 32.4639 21.987 31.1587 21.48 29.0478ZM21.023 44.0056C20.0087 39.7828 22.6183 35.5235 26.8412 34.5093C31.064 33.4951 35.3232 36.1047 36.3375 40.3275L36.644 41.6038L21.3295 45.2819L21.023 44.0056Z" fill="#15C974"/>
<path d="M86.8209 18.3805C87.8558 16.8936 88.2981 15.0042 87.843 13.1093C86.9979 9.59064 83.4481 7.41574 79.9294 8.26083C76.4107 9.10591 74.2358 12.6557 75.0809 16.1744C75.536 18.0693 76.7881 19.5518 78.3854 20.4064C75.2429 22.8629 73.6332 27.0074 74.6239 31.1322L75.2369 33.6847C75.4064 34.3905 76.1137 34.8239 76.8196 34.6544L94.6865 30.3632C95.3924 30.1937 95.8257 29.4864 95.6562 28.7805L95.0432 26.2281C94.0525 22.1033 90.7362 19.1418 86.8209 18.3805ZM77.6333 15.5614C77.1263 13.4505 78.4315 11.3202 80.5424 10.8132C82.6533 10.3063 84.7836 11.6114 85.2906 13.7223C85.7975 15.8333 84.4924 17.9635 82.3815 18.4705C80.2705 18.9775 78.1403 17.6723 77.6333 15.5614ZM92.7973 28.1173L77.4828 31.7954L77.1763 30.5192C76.1621 26.2964 78.7716 22.0371 82.9945 21.0229C87.2173 20.0087 91.4766 22.6183 92.4908 26.8411L92.7973 28.1173Z" fill="#15C974"/>
<path d="M58.2896 41.8045C51.9558 43.3257 48.0411 49.7151 49.5623 56.0489C51.0835 62.3827 57.4729 66.2974 63.8067 64.7762C70.1405 63.255 74.0552 56.8656 72.534 50.5318C71.0129 44.198 64.6234 40.2833 58.2896 41.8045ZM63.1937 62.2238C58.2689 63.4066 53.2975 60.3608 52.1147 55.4359C50.9319 50.511 53.9778 45.5397 58.9026 44.3569C63.8275 43.1741 68.7988 46.2199 69.9816 51.1448C71.1644 56.0696 68.1186 61.041 63.1937 62.2238Z" fill="#15C974"/>
<path d="M80.1412 54.1041C80.8471 53.9346 81.2805 53.2273 81.1109 52.5214L79.2719 44.8641C79.1024 44.1582 78.3951 43.7249 77.6892 43.8944L75.5744 44.3674C75.1148 43.6179 74.5925 42.8984 73.9971 42.2056L75.1248 40.365C75.504 39.746 75.3103 38.9393 74.6914 38.5606L67.9776 34.4472C67.3587 34.068 66.5519 34.2617 66.1733 34.8806L65.0099 36.708C64.1564 36.5039 63.2783 36.3652 62.3675 36.299L61.8621 34.1974C61.6926 33.4915 60.9853 33.0581 60.2794 33.2277L52.6221 35.0667C51.9163 35.2362 51.4829 35.9435 51.6524 36.6494L52.1254 38.7642C51.3759 39.2238 50.6564 39.7461 49.9636 40.3416L48.123 39.2138C47.504 38.8346 46.6973 39.0284 46.3186 39.6472L42.2052 46.361C41.826 46.9799 42.0198 47.7867 42.6386 48.1653L44.4661 49.3288C44.2619 50.1823 44.1233 51.0603 44.057 51.9712L41.9554 52.4765C41.2495 52.646 40.8162 53.3533 40.9857 54.0592L42.8247 61.7165C42.9943 62.4224 43.7016 62.8557 44.4075 62.6862L46.5222 62.2132C46.9824 62.965 47.5044 63.6833 48.0996 64.375L46.9719 66.2156C46.5926 66.8346 46.7864 67.6413 47.4052 68.02L54.119 72.1334C54.738 72.5126 55.5447 72.3189 55.9233 71.7L57.0864 69.8708C57.939 70.0764 58.8158 70.2141 59.729 70.281L60.2345 72.3832C60.4041 73.0891 61.1113 73.5224 61.8172 73.3529L69.4745 71.5138C70.1804 71.3443 70.6137 70.637 70.4442 69.9311L69.9712 67.8164C70.723 67.3562 71.4414 66.8342 72.133 66.239L73.9736 67.3667C74.5926 67.746 75.3993 67.5522 75.778 66.9334L79.8914 60.2196C80.2706 59.6006 80.0769 58.7939 79.4581 58.4152L77.6288 57.2522C77.8344 56.3996 77.9721 55.5228 78.039 54.6096L80.1412 54.1041ZM75.4244 54.4391C75.3659 55.1793 75.2495 55.9189 75.0765 56.639C74.8067 57.7686 75.2755 58.9276 76.2471 59.5234L76.9686 59.9654L74.2261 64.4415L73.5047 63.9995C72.5332 63.4043 71.2878 63.5129 70.4026 64.2679C69.8406 64.7482 69.2346 65.1883 68.599 65.5772C67.6084 66.1876 67.122 67.3384 67.3875 68.4437L67.5855 69.2681L62.4806 70.4941L62.2826 69.6697C62.0175 68.5656 61.0611 67.76 59.9 67.6676C59.1598 67.6091 58.4202 67.4927 57.7001 67.3197C56.5702 67.0488 55.4111 67.517 54.8157 68.4903L54.3737 69.2118L49.8976 66.4693L50.3396 65.7479C50.934 64.7778 50.8262 63.531 50.0712 62.6458C49.5909 62.0838 49.1508 61.4778 48.7619 60.8422C48.1513 59.8505 47.0004 59.3641 45.8952 59.6295L45.0707 59.8275L43.8447 54.7227L44.6691 54.5247C45.7733 54.2595 46.5788 53.3031 46.6713 52.142C46.7297 51.4019 46.8461 50.6622 47.018 49.9424C47.2889 48.8125 46.8207 47.6534 45.8485 47.0577L45.1271 46.6157L47.8695 42.1396L48.5909 42.5816C49.5599 43.1763 50.8069 43.0696 51.6912 42.3149C52.2556 41.8323 52.8611 41.3928 53.4968 41.0039C54.4885 40.3933 54.9749 39.2424 54.7095 38.1372L54.5115 37.3128L59.6163 36.0867L59.8143 36.9111C60.0795 38.0153 61.0359 38.8208 62.197 38.9133C62.9371 38.9717 63.6768 39.0882 64.3966 39.26C65.5271 39.5338 66.6852 39.061 67.2812 38.0905L67.7232 37.3691L72.1993 40.1115L71.7574 40.8329C71.163 41.803 71.2708 43.0498 72.0241 43.9332C72.5067 44.4976 72.9462 45.1031 73.3351 45.7388C73.9457 46.7305 75.0966 47.2169 76.2018 46.9515L77.0262 46.7535L78.2523 51.8583L77.4279 52.0563C76.3226 52.3218 75.5182 53.2779 75.4247 54.4392L75.4244 54.4391Z" fill="#15C974"/>
<path d="M66.6067 50.8323L57.7234 47.5665C57.2706 47.3998 56.7602 47.4953 56.3988 47.8171C56.0374 48.1389 55.8809 48.6339 55.9941 49.1051L58.4461 59.3147C58.5593 59.7859 58.9224 60.1561 59.3905 60.2787C59.6033 60.3342 59.822 60.3341 60.0288 60.2844C60.2767 60.2249 60.5064 60.0926 60.6856 59.9001L67.1168 52.9562C67.4147 52.6334 67.5321 52.184 67.4298 51.7578C67.3274 51.3317 67.0187 50.9846 66.6067 50.8323L66.6067 50.8323ZM60.4261 56.318L59.1192 50.8764L63.8525 52.6169L60.4261 56.318Z" fill="#15C974"/>
<path d="M28.9365 48.8541L31.4889 48.2411L32.102 50.7935L29.5495 51.4066L28.9365 48.8541Z" fill="#15C974"/>
<path d="M30.1621 53.959L32.7145 53.346L33.3275 55.8984L30.7751 56.5114L30.1621 53.959Z" fill="#15C974"/>
<path d="M31.3887 59.0638L33.9411 58.4508L34.5541 61.0032L32.0017 61.6162L31.3887 59.0638Z" fill="#15C974"/>
<path d="M32.6143 64.1687L35.1667 63.5556L35.7797 66.1081L33.2273 66.7211L32.6143 64.1687Z" fill="#15C974"/>
<path d="M33.8408 69.2735L36.3932 68.6605L37.0063 71.2129L34.4538 71.8259L33.8408 69.2735Z" fill="#15C974"/>
<path d="M85.0898 35.3678L87.6423 34.7548L88.2553 37.3072L85.7029 37.9202L85.0898 35.3678Z" fill="#15C974"/>
<path d="M86.3154 40.4726L88.8678 39.8596L89.4809 42.412L86.9284 43.0251L86.3154 40.4726Z" fill="#15C974"/>
<path d="M87.542 45.5775L90.0944 44.9645L90.7074 47.5169L88.155 48.1299L87.542 45.5775Z" fill="#15C974"/>
<path d="M88.7676 50.6823L91.32 50.0693L91.933 52.6217L89.3806 53.2347L88.7676 50.6823Z" fill="#15C974"/>
<path d="M89.9941 55.7871L92.5466 55.1741L93.1596 57.7265L90.6072 58.3396L89.9941 55.7871Z" fill="#15C974"/>
<path d="M62.9316 21.792L65.4841 21.179L66.0971 23.7314L63.5447 24.3444L62.9316 21.792Z" fill="#15C974"/>
<path d="M57.8271 23.018L60.3796 22.405L60.9926 24.9574L58.4402 25.5704L57.8271 23.018Z" fill="#15C974"/>
<path d="M52.7217 24.244L55.2741 23.631L55.8871 26.1835L53.3347 26.7965L52.7217 24.244Z" fill="#15C974"/>
<path d="M47.6172 25.4701L50.1696 24.8571L50.7826 27.4095L48.2302 28.0225L47.6172 25.4701Z" fill="#15C974"/>
<path d="M42.5127 26.6961L45.0651 26.0831L45.6781 28.6355L43.1257 29.2485L42.5127 26.6961Z" fill="#15C974"/>
<path d="M76.418 77.9452L78.9704 77.3322L79.5834 79.8846L77.031 80.4976L76.418 77.9452Z" fill="#15C974"/>
<path d="M71.3135 79.1712L73.8659 78.5582L74.4789 81.1106L71.9265 81.7236L71.3135 79.1712Z" fill="#15C974"/>
<path d="M66.208 80.3972L68.7604 79.7842L69.3734 82.3366L66.821 82.9497L66.208 80.3972Z" fill="#15C974"/>
<path d="M61.1035 81.6233L63.6559 81.0103L64.2689 83.5627L61.7165 84.1757L61.1035 81.6233Z" fill="#15C974"/>
<path d="M55.999 82.8493L58.5514 82.2363L59.1645 84.7887L56.612 85.4017L55.999 82.8493Z" fill="#15C974"/>
</g>
<defs>
<clipPath id="clip0_87_69144">
<rect width="105" height="105" fill="white" transform="translate(0.191406 24.712) rotate(-13.505)"/>
</clipPath>
</defs>
</svg>
