<svg width="114" height="114" viewBox="0 0 114 114" fill="none" xmlns="http://www.w3.org/2000/svg">
<g clip-path="url(#clip0_87_69191)">
<path d="M91.5692 36.3494L57.1296 16.4946C53.9658 14.6706 49.9059 15.7591 48.0805 18.9254L28.2258 53.3651C26.4004 56.5314 27.4928 60.5901 30.6566 62.4141L65.0962 82.2689C68.2601 84.0928 72.3199 83.0043 74.1453 79.8381L94 45.3984C95.8254 42.2321 94.7331 38.1733 91.5692 36.3494ZM55.8061 18.7904L90.2457 38.6451C92.1443 39.7397 92.7991 42.1758 91.7043 44.0749L87.0716 52.1106L45.744 28.2849L50.3763 20.249C51.4709 18.3504 53.9074 17.6958 55.8061 18.7904L55.8061 18.7904ZM66.42 79.9727L31.9804 60.1179C30.0818 59.0234 29.4269 56.5873 30.5218 54.6882L44.4201 30.5804L85.7477 54.4061L71.8497 78.5141C70.7552 80.4127 68.3187 81.0673 66.42 79.9727L66.42 79.9727Z" fill="#41D28E"/>
<path d="M54.1308 27.0022L58.7228 29.6495C59.3566 30.0149 60.1673 29.7968 60.5325 29.1634C60.8979 28.5296 60.6804 27.7187 60.0466 27.3533L55.4545 24.706C54.8211 24.3408 54.01 24.5587 53.6449 25.1921C53.2795 25.8259 53.4974 26.637 54.1308 27.0022Z" fill="#41D28E"/>
<path d="M63.3144 32.2968L67.9064 34.9441C68.5402 35.3095 69.3509 35.0914 69.7161 34.458C70.0815 33.8242 69.8636 33.0131 69.2302 32.648L64.6381 30.0006C64.0043 29.6352 63.1936 29.8533 62.8285 30.4867C62.4631 31.1205 62.6806 31.9314 63.3144 32.2968Z" fill="#41D28E"/>
<path d="M55.993 46.8764C55.8034 46.1707 55.0755 45.751 54.3698 45.9406L43.5111 48.8576C42.8054 49.0471 42.3858 49.7751 42.5754 50.4807L45.4923 61.3394C45.585 61.6932 45.814 61.9751 46.1078 62.1446C46.4017 62.314 46.7605 62.3709 47.1138 62.278C47.8195 62.0885 48.2392 61.3605 48.0496 60.6548L45.4761 51.0733L55.0536 48.5005C55.763 48.3099 56.1813 47.5844 55.9931 46.8764L55.993 46.8764Z" fill="#41D28E"/>
<path d="M67.4724 53.4946C67.2828 52.789 66.5549 52.3693 65.8492 52.5589C65.1435 52.7484 64.7239 53.4764 64.9134 54.182L67.4848 63.7619L57.9074 66.3346C57.2017 66.5242 56.782 67.2521 56.9716 67.9578C57.0643 68.3116 57.2933 68.5935 57.5872 68.7629C57.881 68.9323 58.2398 68.9893 58.5931 68.8964L69.4519 65.9794C70.1576 65.7899 70.5772 65.0619 70.3876 64.3563L67.4724 53.4946Z" fill="#41D28E"/>
</g>
<defs>
<clipPath id="clip0_87_69191">
<rect width="82.8187" height="82.8187" fill="white" transform="translate(41.7842) rotate(29.9638)"/>
</clipPath>
</defs>
</svg>
