<svg width="1200" height="628" viewBox="0 0 1200 628" fill="none" xmlns="http://www.w3.org/2000/svg">
<g clip-path="url(#clip0_559_550)">
<path d="M2 0H0V2H2V0Z" fill="white" fill-opacity="0.1"/>
<path d="M0.000312805 141.95V95.7625M0.000312805 76.0505L22.9303 62.8105V-13.2375L40.0003 -26.4795L17.0703 -13.2375V13.2385L40.0003 26.4805M40.0003 72.6665L0.000312805 95.7605M0.000312805 95.7605V141.948M0.000312805 141.948L40.0003 165.044L80.0003 141.948V95.7605M80.0003 95.7605L40.0003 72.6665M40.0003 72.6665L80.0003 95.7645M0.000312805 23.0945L-22.9297 36.3325V62.8105L0.000312805 76.0505L22.9303 62.8105V36.3305L0.000312805 23.0965V-23.0915L40.0003 -46.1855L80.0003 -23.0915V23.0965M40.0003 72.6665V26.4805M40.0003 92.3784L17.0703 105.616V132.094L40.0003 145.334L62.9303 132.094V105.616L40.0003 92.3784ZM57.0703 36.3345V62.8105L80.0003 76.0484L102.93 62.8085V36.3325L80.0003 23.0925L57.0703 36.3345Z" stroke="white" stroke-opacity="0.1" stroke-linecap="square"/>
</g>
<g clip-path="url(#clip1_559_550)">
<path d="M82 0H80V2H82V0Z" fill="white" fill-opacity="0.1"/>
<path d="M80.0003 141.95V95.7625M80.0003 76.0505L102.93 62.8105V-13.2375L120 -26.4795L97.0703 -13.2375V13.2385L120 26.4805M120 72.6665L80.0003 95.7605M80.0003 95.7605V141.948M80.0003 141.948L120 165.044L160 141.948V95.7605M160 95.7605L120 72.6665M120 72.6665L160 95.7645M80.0003 23.0945L57.0703 36.3325V62.8105L80.0003 76.0505L102.93 62.8105V36.3305L80.0003 23.0965V-23.0915L120 -46.1855L160 -23.0915V23.0965M120 72.6665V26.4805M120 92.3784L97.0703 105.616V132.094L120 145.334L142.93 132.094V105.616L120 92.3784ZM137.07 36.3345V62.8105L160 76.0484L182.93 62.8085V36.3325L160 23.0925L137.07 36.3345Z" stroke="white" stroke-opacity="0.1" stroke-linecap="square"/>
</g>
<g clip-path="url(#clip2_559_550)">
<path d="M162 0H160V2H162V0Z" fill="white" fill-opacity="0.1"/>
<path d="M160 141.95V95.7625M160 76.0505L182.93 62.8105V-13.2375L200 -26.4795L177.07 -13.2375V13.2385L200 26.4805M200 72.6665L160 95.7605M160 95.7605V141.948M160 141.948L200 165.044L240 141.948V95.7605M240 95.7605L200 72.6665M200 72.6665L240 95.7645M160 23.0945L137.07 36.3325V62.8105L160 76.0505L182.93 62.8105V36.3305L160 23.0965V-23.0915L200 -46.1855L240 -23.0915V23.0965M200 72.6665V26.4805M200 92.3784L177.07 105.616V132.094L200 145.334L222.93 132.094V105.616L200 92.3784ZM217.07 36.3345V62.8105L240 76.0484L262.93 62.8085V36.3325L240 23.0925L217.07 36.3345Z" stroke="white" stroke-opacity="0.1" stroke-linecap="square"/>
</g>
<g clip-path="url(#clip3_559_550)">
<path d="M242 0H240V2H242V0Z" fill="white" fill-opacity="0.1"/>
<path d="M240 141.95V95.7625M240 76.0505L262.93 62.8105V-13.2375L280 -26.4795L257.07 -13.2375V13.2385L280 26.4805M280 72.6665L240 95.7605M240 95.7605V141.948M240 141.948L280 165.044L320 141.948V95.7605M320 95.7605L280 72.6665M280 72.6665L320 95.7645M240 23.0945L217.07 36.3325V62.8105L240 76.0505L262.93 62.8105V36.3305L240 23.0965V-23.0915L280 -46.1855L320 -23.0915V23.0965M280 72.6665V26.4805M280 92.3784L257.07 105.616V132.094L280 145.334L302.93 132.094V105.616L280 92.3784ZM297.07 36.3345V62.8105L320 76.0484L342.93 62.8085V36.3325L320 23.0925L297.07 36.3345Z" stroke="white" stroke-opacity="0.1" stroke-linecap="square"/>
</g>
<g clip-path="url(#clip4_559_550)">
<path d="M322 0H320V2H322V0Z" fill="white" fill-opacity="0.1"/>
<path d="M320 141.95V95.7625M320 76.0505L342.93 62.8105V-13.2375L360 -26.4795L337.07 -13.2375V13.2385L360 26.4805M360 72.6665L320 95.7605M320 95.7605V141.948M320 141.948L360 165.044L400 141.948V95.7605M400 95.7605L360 72.6665M360 72.6665L400 95.7645M320 23.0945L297.07 36.3325V62.8105L320 76.0505L342.93 62.8105V36.3305L320 23.0965V-23.0915L360 -46.1855L400 -23.0915V23.0965M360 72.6665V26.4805M360 92.3784L337.07 105.616V132.094L360 145.334L382.93 132.094V105.616L360 92.3784ZM377.07 36.3345V62.8105L400 76.0484L422.93 62.8085V36.3325L400 23.0925L377.07 36.3345Z" stroke="white" stroke-opacity="0.1" stroke-linecap="square"/>
</g>
<g clip-path="url(#clip5_559_550)">
<path d="M402 0H400V2H402V0Z" fill="white" fill-opacity="0.1"/>
<path d="M400 141.95V95.7625M400 76.0505L422.93 62.8105V-13.2375L440 -26.4795L417.07 -13.2375V13.2385L440 26.4805M440 72.6665L400 95.7605M400 95.7605V141.948M400 141.948L440 165.044L480 141.948V95.7605M480 95.7605L440 72.6665M440 72.6665L480 95.7645M400 23.0945L377.07 36.3325V62.8105L400 76.0505L422.93 62.8105V36.3305L400 23.0965V-23.0915L440 -46.1855L480 -23.0915V23.0965M440 72.6665V26.4805M440 92.3784L417.07 105.616V132.094L440 145.334L462.93 132.094V105.616L440 92.3784ZM457.07 36.3345V62.8105L480 76.0484L502.93 62.8085V36.3325L480 23.0925L457.07 36.3345Z" stroke="white" stroke-opacity="0.1" stroke-linecap="square"/>
</g>
<g clip-path="url(#clip6_559_550)">
<path d="M482 0H480V2H482V0Z" fill="white" fill-opacity="0.1"/>
<path d="M480 141.95V95.7625M480 76.0505L502.93 62.8105V-13.2375L520 -26.4795L497.07 -13.2375V13.2385L520 26.4805M520 72.6665L480 95.7605M480 95.7605V141.948M480 141.948L520 165.044L560 141.948V95.7605M560 95.7605L520 72.6665M520 72.6665L560 95.7645M480 23.0945L457.07 36.3325V62.8105L480 76.0505L502.93 62.8105V36.3305L480 23.0965V-23.0915L520 -46.1855L560 -23.0915V23.0965M520 72.6665V26.4805M520 92.3784L497.07 105.616V132.094L520 145.334L542.93 132.094V105.616L520 92.3784ZM537.07 36.3345V62.8105L560 76.0484L582.93 62.8085V36.3325L560 23.0925L537.07 36.3345Z" stroke="white" stroke-opacity="0.1" stroke-linecap="square"/>
</g>
<g clip-path="url(#clip7_559_550)">
<path d="M562 0H560V2H562V0Z" fill="white" fill-opacity="0.1"/>
<path d="M560 141.95V95.7625M560 76.0505L582.93 62.8105V-13.2375L600 -26.4795L577.07 -13.2375V13.2385L600 26.4805M600 72.6665L560 95.7605M560 95.7605V141.948M560 141.948L600 165.044L640 141.948V95.7605M640 95.7605L600 72.6665M600 72.6665L640 95.7645M560 23.0945L537.07 36.3325V62.8105L560 76.0505L582.93 62.8105V36.3305L560 23.0965V-23.0915L600 -46.1855L640 -23.0915V23.0965M600 72.6665V26.4805M600 92.3784L577.07 105.616V132.094L600 145.334L622.93 132.094V105.616L600 92.3784ZM617.07 36.3345V62.8105L640 76.0484L662.93 62.8085V36.3325L640 23.0925L617.07 36.3345Z" stroke="white" stroke-opacity="0.1" stroke-linecap="square"/>
</g>
<g clip-path="url(#clip8_559_550)">
<path d="M642 0H640V2H642V0Z" fill="white" fill-opacity="0.1"/>
<path d="M640 141.95V95.7625M640 76.0505L662.93 62.8105V-13.2375L680 -26.4795L657.07 -13.2375V13.2385L680 26.4805M680 72.6665L640 95.7605M640 95.7605V141.948M640 141.948L680 165.044L720 141.948V95.7605M720 95.7605L680 72.6665M680 72.6665L720 95.7645M640 23.0945L617.07 36.3325V62.8105L640 76.0505L662.93 62.8105V36.3305L640 23.0965V-23.0915L680 -46.1855L720 -23.0915V23.0965M680 72.6665V26.4805M680 92.3784L657.07 105.616V132.094L680 145.334L702.93 132.094V105.616L680 92.3784ZM697.07 36.3345V62.8105L720 76.0484L742.93 62.8085V36.3325L720 23.0925L697.07 36.3345Z" stroke="white" stroke-opacity="0.1" stroke-linecap="square"/>
</g>
<g clip-path="url(#clip9_559_550)">
<path d="M722 0H720V2H722V0Z" fill="white" fill-opacity="0.1"/>
<path d="M720 141.95V95.7625M720 76.0505L742.93 62.8105V-13.2375L760 -26.4795L737.07 -13.2375V13.2385L760 26.4805M760 72.6665L720 95.7605M720 95.7605V141.948M720 141.948L760 165.044L800 141.948V95.7605M800 95.7605L760 72.6665M760 72.6665L800 95.7645M720 23.0945L697.07 36.3325V62.8105L720 76.0505L742.93 62.8105V36.3305L720 23.0965V-23.0915L760 -46.1855L800 -23.0915V23.0965M760 72.6665V26.4805M760 92.3784L737.07 105.616V132.094L760 145.334L782.93 132.094V105.616L760 92.3784ZM777.07 36.3345V62.8105L800 76.0484L822.93 62.8085V36.3325L800 23.0925L777.07 36.3345Z" stroke="white" stroke-opacity="0.1" stroke-linecap="square"/>
</g>
<g clip-path="url(#clip10_559_550)">
<path d="M802 0H800V2H802V0Z" fill="white" fill-opacity="0.1"/>
<path d="M800 141.95V95.7625M800 76.0505L822.93 62.8105V-13.2375L840 -26.4795L817.07 -13.2375V13.2385L840 26.4805M840 72.6665L800 95.7605M800 95.7605V141.948M800 141.948L840 165.044L880 141.948V95.7605M880 95.7605L840 72.6665M840 72.6665L880 95.7645M800 23.0945L777.07 36.3325V62.8105L800 76.0505L822.93 62.8105V36.3305L800 23.0965V-23.0915L840 -46.1855L880 -23.0915V23.0965M840 72.6665V26.4805M840 92.3784L817.07 105.616V132.094L840 145.334L862.93 132.094V105.616L840 92.3784ZM857.07 36.3345V62.8105L880 76.0484L902.93 62.8085V36.3325L880 23.0925L857.07 36.3345Z" stroke="white" stroke-opacity="0.1" stroke-linecap="square"/>
</g>
<g clip-path="url(#clip11_559_550)">
<path d="M882 0H880V2H882V0Z" fill="white" fill-opacity="0.1"/>
<path d="M880 141.95V95.7625M880 76.0505L902.93 62.8105V-13.2375L920 -26.4795L897.07 -13.2375V13.2385L920 26.4805M920 72.6665L880 95.7605M880 95.7605V141.948M880 141.948L920 165.044L960 141.948V95.7605M960 95.7605L920 72.6665M920 72.6665L960 95.7645M880 23.0945L857.07 36.3325V62.8105L880 76.0505L902.93 62.8105V36.3305L880 23.0965V-23.0915L920 -46.1855L960 -23.0915V23.0965M920 72.6665V26.4805M920 92.3784L897.07 105.616V132.094L920 145.334L942.93 132.094V105.616L920 92.3784ZM937.07 36.3345V62.8105L960 76.0484L982.93 62.8085V36.3325L960 23.0925L937.07 36.3345Z" stroke="white" stroke-opacity="0.1" stroke-linecap="square"/>
</g>
<g clip-path="url(#clip12_559_550)">
<path d="M962 0H960V2H962V0Z" fill="white" fill-opacity="0.1"/>
<path d="M960 141.95V95.7625M960 76.0505L982.93 62.8105V-13.2375L1000 -26.4795L977.07 -13.2375V13.2385L1000 26.4805M1000 72.6665L960 95.7605M960 95.7605V141.948M960 141.948L1000 165.044L1040 141.948V95.7605M1040 95.7605L1000 72.6665M1000 72.6665L1040 95.7645M960 23.0945L937.07 36.3325V62.8105L960 76.0505L982.93 62.8105V36.3305L960 23.0965V-23.0915L1000 -46.1855L1040 -23.0915V23.0965M1000 72.6665V26.4805M1000 92.3784L977.07 105.616V132.094L1000 145.334L1022.93 132.094V105.616L1000 92.3784ZM1017.07 36.3345V62.8105L1040 76.0484L1062.93 62.8085V36.3325L1040 23.0925L1017.07 36.3345Z" stroke="white" stroke-opacity="0.1" stroke-linecap="square"/>
</g>
<g clip-path="url(#clip13_559_550)">
<path d="M1042 0H1040V2H1042V0Z" fill="white" fill-opacity="0.1"/>
<path d="M1040 141.95V95.7625M1040 76.0505L1062.93 62.8105V-13.2375L1080 -26.4795L1057.07 -13.2375V13.2385L1080 26.4805M1080 72.6665L1040 95.7605M1040 95.7605V141.948M1040 141.948L1080 165.044L1120 141.948V95.7605M1120 95.7605L1080 72.6665M1080 72.6665L1120 95.7645M1040 23.0945L1017.07 36.3325V62.8105L1040 76.0505L1062.93 62.8105V36.3305L1040 23.0965V-23.0915L1080 -46.1855L1120 -23.0915V23.0965M1080 72.6665V26.4805M1080 92.3784L1057.07 105.616V132.094L1080 145.334L1102.93 132.094V105.616L1080 92.3784ZM1097.07 36.3345V62.8105L1120 76.0484L1142.93 62.8085V36.3325L1120 23.0925L1097.07 36.3345Z" stroke="white" stroke-opacity="0.1" stroke-linecap="square"/>
</g>
<g clip-path="url(#clip14_559_550)">
<path d="M1122 0H1120V2H1122V0Z" fill="white" fill-opacity="0.1"/>
<path d="M1120 141.95V95.7625M1120 76.0505L1142.93 62.8105V-13.2375L1160 -26.4795L1137.07 -13.2375V13.2385L1160 26.4805M1160 72.6665L1120 95.7605M1120 95.7605V141.948M1120 141.948L1160 165.044L1200 141.948V95.7605M1200 95.7605L1160 72.6665M1160 72.6665L1200 95.7645M1120 23.0945L1097.07 36.3325V62.8105L1120 76.0505L1142.93 62.8105V36.3305L1120 23.0965V-23.0915L1160 -46.1855L1200 -23.0915V23.0965M1160 72.6665V26.4805M1160 92.3784L1137.07 105.616V132.094L1160 145.334L1182.93 132.094V105.616L1160 92.3784ZM1177.07 36.3345V62.8105L1200 76.0484L1222.93 62.8085V36.3325L1200 23.0925L1177.07 36.3345Z" stroke="white" stroke-opacity="0.1" stroke-linecap="square"/>
</g>
<g clip-path="url(#clip15_559_550)">
<path d="M2 118.855H0V120.855H2V118.855Z" fill="white" fill-opacity="0.1"/>
<path d="M0.000312805 260.806V214.618M0.000312805 194.906L22.9303 181.666V105.618L40.0003 92.3759L17.0703 105.618V132.094L40.0003 145.336M40.0003 191.522L0.000312805 214.616M0.000312805 214.616V260.804M0.000312805 260.804L40.0003 283.9L80.0003 260.804V214.616M80.0003 214.616L40.0003 191.522M40.0003 191.522L80.0003 214.62M0.000312805 141.95L-22.9297 155.188V181.666L0.000312805 194.906L22.9303 181.666V155.186L0.000312805 141.952V95.7639L40.0003 72.6699L80.0003 95.7639V141.952M40.0003 191.522V145.336M40.0003 211.234L17.0703 224.472V250.95L40.0003 264.19L62.9303 250.95V224.472L40.0003 211.234ZM57.0703 155.19V181.666L80.0003 194.904L102.93 181.664V155.188L80.0003 141.948L57.0703 155.19Z" stroke="white" stroke-opacity="0.1" stroke-linecap="square"/>
</g>
<g clip-path="url(#clip16_559_550)">
<path d="M82 118.855H80V120.855H82V118.855Z" fill="white" fill-opacity="0.1"/>
<path d="M80.0003 260.806V214.618M80.0003 194.906L102.93 181.666V105.618L120 92.3759L97.0703 105.618V132.094L120 145.336M120 191.522L80.0003 214.616M80.0003 214.616V260.804M80.0003 260.804L120 283.9L160 260.804V214.616M160 214.616L120 191.522M120 191.522L160 214.62M80.0003 141.95L57.0703 155.188V181.666L80.0003 194.906L102.93 181.666V155.186L80.0003 141.952V95.7639L120 72.6699L160 95.7639V141.952M120 191.522V145.336M120 211.234L97.0703 224.472V250.95L120 264.19L142.93 250.95V224.472L120 211.234ZM137.07 155.19V181.666L160 194.904L182.93 181.664V155.188L160 141.948L137.07 155.19Z" stroke="white" stroke-opacity="0.1" stroke-linecap="square"/>
</g>
<g clip-path="url(#clip17_559_550)">
<path d="M162 118.855H160V120.855H162V118.855Z" fill="white" fill-opacity="0.1"/>
<path d="M160 260.806V214.618M160 194.906L182.93 181.666V105.618L200 92.3759L177.07 105.618V132.094L200 145.336M200 191.522L160 214.616M160 214.616V260.804M160 260.804L200 283.9L240 260.804V214.616M240 214.616L200 191.522M200 191.522L240 214.62M160 141.95L137.07 155.188V181.666L160 194.906L182.93 181.666V155.186L160 141.952V95.7639L200 72.6699L240 95.7639V141.952M200 191.522V145.336M200 211.234L177.07 224.472V250.95L200 264.19L222.93 250.95V224.472L200 211.234ZM217.07 155.19V181.666L240 194.904L262.93 181.664V155.188L240 141.948L217.07 155.19Z" stroke="white" stroke-opacity="0.1" stroke-linecap="square"/>
</g>
<g clip-path="url(#clip18_559_550)">
<path d="M242 118.855H240V120.855H242V118.855Z" fill="white" fill-opacity="0.1"/>
<path d="M240 260.806V214.618M240 194.906L262.93 181.666V105.618L280 92.3759L257.07 105.618V132.094L280 145.336M280 191.522L240 214.616M240 214.616V260.804M240 260.804L280 283.9L320 260.804V214.616M320 214.616L280 191.522M280 191.522L320 214.62M240 141.95L217.07 155.188V181.666L240 194.906L262.93 181.666V155.186L240 141.952V95.7639L280 72.6699L320 95.7639V141.952M280 191.522V145.336M280 211.234L257.07 224.472V250.95L280 264.19L302.93 250.95V224.472L280 211.234ZM297.07 155.19V181.666L320 194.904L342.93 181.664V155.188L320 141.948L297.07 155.19Z" stroke="white" stroke-opacity="0.1" stroke-linecap="square"/>
</g>
<g clip-path="url(#clip19_559_550)">
<path d="M322 118.855H320V120.855H322V118.855Z" fill="white" fill-opacity="0.1"/>
<path d="M320 260.806V214.618M320 194.906L342.93 181.666V105.618L360 92.3759L337.07 105.618V132.094L360 145.336M360 191.522L320 214.616M320 214.616V260.804M320 260.804L360 283.9L400 260.804V214.616M400 214.616L360 191.522M360 191.522L400 214.62M320 141.95L297.07 155.188V181.666L320 194.906L342.93 181.666V155.186L320 141.952V95.7639L360 72.6699L400 95.7639V141.952M360 191.522V145.336M360 211.234L337.07 224.472V250.95L360 264.19L382.93 250.95V224.472L360 211.234ZM377.07 155.19V181.666L400 194.904L422.93 181.664V155.188L400 141.948L377.07 155.19Z" stroke="white" stroke-opacity="0.1" stroke-linecap="square"/>
</g>
<g clip-path="url(#clip20_559_550)">
<path d="M402 118.855H400V120.855H402V118.855Z" fill="white" fill-opacity="0.1"/>
<path d="M400 260.806V214.618M400 194.906L422.93 181.666V105.618L440 92.3759L417.07 105.618V132.094L440 145.336M440 191.522L400 214.616M400 214.616V260.804M400 260.804L440 283.9L480 260.804V214.616M480 214.616L440 191.522M440 191.522L480 214.62M400 141.95L377.07 155.188V181.666L400 194.906L422.93 181.666V155.186L400 141.952V95.7639L440 72.6699L480 95.7639V141.952M440 191.522V145.336M440 211.234L417.07 224.472V250.95L440 264.19L462.93 250.95V224.472L440 211.234ZM457.07 155.19V181.666L480 194.904L502.93 181.664V155.188L480 141.948L457.07 155.19Z" stroke="white" stroke-opacity="0.1" stroke-linecap="square"/>
</g>
<g clip-path="url(#clip21_559_550)">
<path d="M482 118.855H480V120.855H482V118.855Z" fill="white" fill-opacity="0.1"/>
<path d="M480 260.806V214.618M480 194.906L502.93 181.666V105.618L520 92.3759L497.07 105.618V132.094L520 145.336M520 191.522L480 214.616M480 214.616V260.804M480 260.804L520 283.9L560 260.804V214.616M560 214.616L520 191.522M520 191.522L560 214.62M480 141.95L457.07 155.188V181.666L480 194.906L502.93 181.666V155.186L480 141.952V95.7639L520 72.6699L560 95.7639V141.952M520 191.522V145.336M520 211.234L497.07 224.472V250.95L520 264.19L542.93 250.95V224.472L520 211.234ZM537.07 155.19V181.666L560 194.904L582.93 181.664V155.188L560 141.948L537.07 155.19Z" stroke="white" stroke-opacity="0.1" stroke-linecap="square"/>
</g>
<g clip-path="url(#clip22_559_550)">
<path d="M562 118.855H560V120.855H562V118.855Z" fill="white" fill-opacity="0.1"/>
<path d="M560 260.806V214.618M560 194.906L582.93 181.666V105.618L600 92.3759L577.07 105.618V132.094L600 145.336M600 191.522L560 214.616M560 214.616V260.804M560 260.804L600 283.9L640 260.804V214.616M640 214.616L600 191.522M600 191.522L640 214.62M560 141.95L537.07 155.188V181.666L560 194.906L582.93 181.666V155.186L560 141.952V95.7639L600 72.6699L640 95.7639V141.952M600 191.522V145.336M600 211.234L577.07 224.472V250.95L600 264.19L622.93 250.95V224.472L600 211.234ZM617.07 155.19V181.666L640 194.904L662.93 181.664V155.188L640 141.948L617.07 155.19Z" stroke="white" stroke-opacity="0.1" stroke-linecap="square"/>
</g>
<g clip-path="url(#clip23_559_550)">
<path d="M642 118.855H640V120.855H642V118.855Z" fill="white" fill-opacity="0.1"/>
<path d="M640 260.806V214.618M640 194.906L662.93 181.666V105.618L680 92.3759L657.07 105.618V132.094L680 145.336M680 191.522L640 214.616M640 214.616V260.804M640 260.804L680 283.9L720 260.804V214.616M720 214.616L680 191.522M680 191.522L720 214.62M640 141.95L617.07 155.188V181.666L640 194.906L662.93 181.666V155.186L640 141.952V95.7639L680 72.6699L720 95.7639V141.952M680 191.522V145.336M680 211.234L657.07 224.472V250.95L680 264.19L702.93 250.95V224.472L680 211.234ZM697.07 155.19V181.666L720 194.904L742.93 181.664V155.188L720 141.948L697.07 155.19Z" stroke="white" stroke-opacity="0.1" stroke-linecap="square"/>
</g>
<g clip-path="url(#clip24_559_550)">
<path d="M722 118.855H720V120.855H722V118.855Z" fill="white" fill-opacity="0.1"/>
<path d="M720 260.806V214.618M720 194.906L742.93 181.666V105.618L760 92.3759L737.07 105.618V132.094L760 145.336M760 191.522L720 214.616M720 214.616V260.804M720 260.804L760 283.9L800 260.804V214.616M800 214.616L760 191.522M760 191.522L800 214.62M720 141.95L697.07 155.188V181.666L720 194.906L742.93 181.666V155.186L720 141.952V95.7639L760 72.6699L800 95.7639V141.952M760 191.522V145.336M760 211.234L737.07 224.472V250.95L760 264.19L782.93 250.95V224.472L760 211.234ZM777.07 155.19V181.666L800 194.904L822.93 181.664V155.188L800 141.948L777.07 155.19Z" stroke="white" stroke-opacity="0.1" stroke-linecap="square"/>
</g>
<g clip-path="url(#clip25_559_550)">
<path d="M802 118.855H800V120.855H802V118.855Z" fill="white" fill-opacity="0.1"/>
<path d="M800 260.806V214.618M800 194.906L822.93 181.666V105.618L840 92.3759L817.07 105.618V132.094L840 145.336M840 191.522L800 214.616M800 214.616V260.804M800 260.804L840 283.9L880 260.804V214.616M880 214.616L840 191.522M840 191.522L880 214.62M800 141.95L777.07 155.188V181.666L800 194.906L822.93 181.666V155.186L800 141.952V95.7639L840 72.6699L880 95.7639V141.952M840 191.522V145.336M840 211.234L817.07 224.472V250.95L840 264.19L862.93 250.95V224.472L840 211.234ZM857.07 155.19V181.666L880 194.904L902.93 181.664V155.188L880 141.948L857.07 155.19Z" stroke="white" stroke-opacity="0.1" stroke-linecap="square"/>
</g>
<g clip-path="url(#clip26_559_550)">
<path d="M882 118.855H880V120.855H882V118.855Z" fill="white" fill-opacity="0.1"/>
<path d="M880 260.806V214.618M880 194.906L902.93 181.666V105.618L920 92.3759L897.07 105.618V132.094L920 145.336M920 191.522L880 214.616M880 214.616V260.804M880 260.804L920 283.9L960 260.804V214.616M960 214.616L920 191.522M920 191.522L960 214.62M880 141.95L857.07 155.188V181.666L880 194.906L902.93 181.666V155.186L880 141.952V95.7639L920 72.6699L960 95.7639V141.952M920 191.522V145.336M920 211.234L897.07 224.472V250.95L920 264.19L942.93 250.95V224.472L920 211.234ZM937.07 155.19V181.666L960 194.904L982.93 181.664V155.188L960 141.948L937.07 155.19Z" stroke="white" stroke-opacity="0.1" stroke-linecap="square"/>
</g>
<g clip-path="url(#clip27_559_550)">
<path d="M962 118.855H960V120.855H962V118.855Z" fill="white" fill-opacity="0.1"/>
<path d="M960 260.806V214.618M960 194.906L982.93 181.666V105.618L1000 92.3759L977.07 105.618V132.094L1000 145.336M1000 191.522L960 214.616M960 214.616V260.804M960 260.804L1000 283.9L1040 260.804V214.616M1040 214.616L1000 191.522M1000 191.522L1040 214.62M960 141.95L937.07 155.188V181.666L960 194.906L982.93 181.666V155.186L960 141.952V95.7639L1000 72.6699L1040 95.7639V141.952M1000 191.522V145.336M1000 211.234L977.07 224.472V250.95L1000 264.19L1022.93 250.95V224.472L1000 211.234ZM1017.07 155.19V181.666L1040 194.904L1062.93 181.664V155.188L1040 141.948L1017.07 155.19Z" stroke="white" stroke-opacity="0.1" stroke-linecap="square"/>
</g>
<g clip-path="url(#clip28_559_550)">
<path d="M1042 118.855H1040V120.855H1042V118.855Z" fill="white" fill-opacity="0.1"/>
<path d="M1040 260.806V214.618M1040 194.906L1062.93 181.666V105.618L1080 92.3759L1057.07 105.618V132.094L1080 145.336M1080 191.522L1040 214.616M1040 214.616V260.804M1040 260.804L1080 283.9L1120 260.804V214.616M1120 214.616L1080 191.522M1080 191.522L1120 214.62M1040 141.95L1017.07 155.188V181.666L1040 194.906L1062.93 181.666V155.186L1040 141.952V95.7639L1080 72.6699L1120 95.7639V141.952M1080 191.522V145.336M1080 211.234L1057.07 224.472V250.95L1080 264.19L1102.93 250.95V224.472L1080 211.234ZM1097.07 155.19V181.666L1120 194.904L1142.93 181.664V155.188L1120 141.948L1097.07 155.19Z" stroke="white" stroke-opacity="0.1" stroke-linecap="square"/>
</g>
<g clip-path="url(#clip29_559_550)">
<path d="M1122 118.855H1120V120.855H1122V118.855Z" fill="white" fill-opacity="0.1"/>
<path d="M1120 260.806V214.618M1120 194.906L1142.93 181.666V105.618L1160 92.3759L1137.07 105.618V132.094L1160 145.336M1160 191.522L1120 214.616M1120 214.616V260.804M1120 260.804L1160 283.9L1200 260.804V214.616M1200 214.616L1160 191.522M1160 191.522L1200 214.62M1120 141.95L1097.07 155.188V181.666L1120 194.906L1142.93 181.666V155.186L1120 141.952V95.7639L1160 72.6699L1200 95.7639V141.952M1160 191.522V145.336M1160 211.234L1137.07 224.472V250.95L1160 264.19L1182.93 250.95V224.472L1160 211.234ZM1177.07 155.19V181.666L1200 194.904L1222.93 181.664V155.188L1200 141.948L1177.07 155.19Z" stroke="white" stroke-opacity="0.1" stroke-linecap="square"/>
</g>
<g clip-path="url(#clip30_559_550)">
<path d="M2 237.713H0V239.713H2V237.713Z" fill="white" fill-opacity="0.1"/>
<path d="M0.000312805 379.663V333.475M0.000312805 313.763L22.9303 300.523V224.475L40.0003 211.233L17.0703 224.475V250.951L40.0003 264.193M40.0003 310.379L0.000312805 333.473M0.000312805 333.473V379.661M0.000312805 379.661L40.0003 402.757L80.0003 379.661V333.473M80.0003 333.473L40.0003 310.379M40.0003 310.379L80.0003 333.477M0.000312805 260.807L-22.9297 274.045V300.523L0.000312805 313.763L22.9303 300.523V274.043L0.000312805 260.809V214.621L40.0003 191.527L80.0003 214.621V260.809M40.0003 310.379V264.193M40.0003 330.091L17.0703 343.329V369.807L40.0003 383.047L62.9303 369.807V343.329L40.0003 330.091ZM57.0703 274.047V300.523L80.0003 313.761L102.93 300.521V274.045L80.0003 260.805L57.0703 274.047Z" stroke="white" stroke-opacity="0.1" stroke-linecap="square"/>
</g>
<g clip-path="url(#clip31_559_550)">
<path d="M82 237.713H80V239.713H82V237.713Z" fill="white" fill-opacity="0.1"/>
<path d="M80.0003 379.663V333.475M80.0003 313.763L102.93 300.523V224.475L120 211.233L97.0703 224.475V250.951L120 264.193M120 310.379L80.0003 333.473M80.0003 333.473V379.661M80.0003 379.661L120 402.757L160 379.661V333.473M160 333.473L120 310.379M120 310.379L160 333.477M80.0003 260.807L57.0703 274.045V300.523L80.0003 313.763L102.93 300.523V274.043L80.0003 260.809V214.621L120 191.527L160 214.621V260.809M120 310.379V264.193M120 330.091L97.0703 343.329V369.807L120 383.047L142.93 369.807V343.329L120 330.091ZM137.07 274.047V300.523L160 313.761L182.93 300.521V274.045L160 260.805L137.07 274.047Z" stroke="white" stroke-opacity="0.1" stroke-linecap="square"/>
</g>
<g clip-path="url(#clip32_559_550)">
<path d="M162 237.713H160V239.713H162V237.713Z" fill="white" fill-opacity="0.1"/>
<path d="M160 379.663V333.475M160 313.763L182.93 300.523V224.475L200 211.233L177.07 224.475V250.951L200 264.193M200 310.379L160 333.473M160 333.473V379.661M160 379.661L200 402.757L240 379.661V333.473M240 333.473L200 310.379M200 310.379L240 333.477M160 260.807L137.07 274.045V300.523L160 313.763L182.93 300.523V274.043L160 260.809V214.621L200 191.527L240 214.621V260.809M200 310.379V264.193M200 330.091L177.07 343.329V369.807L200 383.047L222.93 369.807V343.329L200 330.091ZM217.07 274.047V300.523L240 313.761L262.93 300.521V274.045L240 260.805L217.07 274.047Z" stroke="white" stroke-opacity="0.1" stroke-linecap="square"/>
</g>
<g clip-path="url(#clip33_559_550)">
<path d="M242 237.713H240V239.713H242V237.713Z" fill="white" fill-opacity="0.1"/>
<path d="M240 379.663V333.475M240 313.763L262.93 300.523V224.475L280 211.233L257.07 224.475V250.951L280 264.193M280 310.379L240 333.473M240 333.473V379.661M240 379.661L280 402.757L320 379.661V333.473M320 333.473L280 310.379M280 310.379L320 333.477M240 260.807L217.07 274.045V300.523L240 313.763L262.93 300.523V274.043L240 260.809V214.621L280 191.527L320 214.621V260.809M280 310.379V264.193M280 330.091L257.07 343.329V369.807L280 383.047L302.93 369.807V343.329L280 330.091ZM297.07 274.047V300.523L320 313.761L342.93 300.521V274.045L320 260.805L297.07 274.047Z" stroke="white" stroke-opacity="0.1" stroke-linecap="square"/>
</g>
<g clip-path="url(#clip34_559_550)">
<path d="M322 237.713H320V239.713H322V237.713Z" fill="white" fill-opacity="0.1"/>
<path d="M320 379.663V333.475M320 313.763L342.93 300.523V224.475L360 211.233L337.07 224.475V250.951L360 264.193M360 310.379L320 333.473M320 333.473V379.661M320 379.661L360 402.757L400 379.661V333.473M400 333.473L360 310.379M360 310.379L400 333.477M320 260.807L297.07 274.045V300.523L320 313.763L342.93 300.523V274.043L320 260.809V214.621L360 191.527L400 214.621V260.809M360 310.379V264.193M360 330.091L337.07 343.329V369.807L360 383.047L382.93 369.807V343.329L360 330.091ZM377.07 274.047V300.523L400 313.761L422.93 300.521V274.045L400 260.805L377.07 274.047Z" stroke="white" stroke-opacity="0.1" stroke-linecap="square"/>
</g>
<g clip-path="url(#clip35_559_550)">
<path d="M402 237.713H400V239.713H402V237.713Z" fill="white" fill-opacity="0.1"/>
<path d="M400 379.663V333.475M400 313.763L422.93 300.523V224.475L440 211.233L417.07 224.475V250.951L440 264.193M440 310.379L400 333.473M400 333.473V379.661M400 379.661L440 402.757L480 379.661V333.473M480 333.473L440 310.379M440 310.379L480 333.477M400 260.807L377.07 274.045V300.523L400 313.763L422.93 300.523V274.043L400 260.809V214.621L440 191.527L480 214.621V260.809M440 310.379V264.193M440 330.091L417.07 343.329V369.807L440 383.047L462.93 369.807V343.329L440 330.091ZM457.07 274.047V300.523L480 313.761L502.93 300.521V274.045L480 260.805L457.07 274.047Z" stroke="white" stroke-opacity="0.1" stroke-linecap="square"/>
</g>
<g clip-path="url(#clip36_559_550)">
<path d="M482 237.713H480V239.713H482V237.713Z" fill="white" fill-opacity="0.1"/>
<path d="M480 379.663V333.475M480 313.763L502.93 300.523V224.475L520 211.233L497.07 224.475V250.951L520 264.193M520 310.379L480 333.473M480 333.473V379.661M480 379.661L520 402.757L560 379.661V333.473M560 333.473L520 310.379M520 310.379L560 333.477M480 260.807L457.07 274.045V300.523L480 313.763L502.93 300.523V274.043L480 260.809V214.621L520 191.527L560 214.621V260.809M520 310.379V264.193M520 330.091L497.07 343.329V369.807L520 383.047L542.93 369.807V343.329L520 330.091ZM537.07 274.047V300.523L560 313.761L582.93 300.521V274.045L560 260.805L537.07 274.047Z" stroke="white" stroke-opacity="0.1" stroke-linecap="square"/>
</g>
<g clip-path="url(#clip37_559_550)">
<path d="M562 237.713H560V239.713H562V237.713Z" fill="white" fill-opacity="0.1"/>
<path d="M560 379.663V333.475M560 313.763L582.93 300.523V224.475L600 211.233L577.07 224.475V250.951L600 264.193M600 310.379L560 333.473M560 333.473V379.661M560 379.661L600 402.757L640 379.661V333.473M640 333.473L600 310.379M600 310.379L640 333.477M560 260.807L537.07 274.045V300.523L560 313.763L582.93 300.523V274.043L560 260.809V214.621L600 191.527L640 214.621V260.809M600 310.379V264.193M600 330.091L577.07 343.329V369.807L600 383.047L622.93 369.807V343.329L600 330.091ZM617.07 274.047V300.523L640 313.761L662.93 300.521V274.045L640 260.805L617.07 274.047Z" stroke="white" stroke-opacity="0.1" stroke-linecap="square"/>
</g>
<g clip-path="url(#clip38_559_550)">
<path d="M642 237.713H640V239.713H642V237.713Z" fill="white" fill-opacity="0.1"/>
<path d="M640 379.663V333.475M640 313.763L662.93 300.523V224.475L680 211.233L657.07 224.475V250.951L680 264.193M680 310.379L640 333.473M640 333.473V379.661M640 379.661L680 402.757L720 379.661V333.473M720 333.473L680 310.379M680 310.379L720 333.477M640 260.807L617.07 274.045V300.523L640 313.763L662.93 300.523V274.043L640 260.809V214.621L680 191.527L720 214.621V260.809M680 310.379V264.193M680 330.091L657.07 343.329V369.807L680 383.047L702.93 369.807V343.329L680 330.091ZM697.07 274.047V300.523L720 313.761L742.93 300.521V274.045L720 260.805L697.07 274.047Z" stroke="white" stroke-opacity="0.1" stroke-linecap="square"/>
</g>
<g clip-path="url(#clip39_559_550)">
<path d="M722 237.713H720V239.713H722V237.713Z" fill="white" fill-opacity="0.1"/>
<path d="M720 379.663V333.475M720 313.763L742.93 300.523V224.475L760 211.233L737.07 224.475V250.951L760 264.193M760 310.379L720 333.473M720 333.473V379.661M720 379.661L760 402.757L800 379.661V333.473M800 333.473L760 310.379M760 310.379L800 333.477M720 260.807L697.07 274.045V300.523L720 313.763L742.93 300.523V274.043L720 260.809V214.621L760 191.527L800 214.621V260.809M760 310.379V264.193M760 330.091L737.07 343.329V369.807L760 383.047L782.93 369.807V343.329L760 330.091ZM777.07 274.047V300.523L800 313.761L822.93 300.521V274.045L800 260.805L777.07 274.047Z" stroke="white" stroke-opacity="0.1" stroke-linecap="square"/>
</g>
<g clip-path="url(#clip40_559_550)">
<path d="M802 237.713H800V239.713H802V237.713Z" fill="white" fill-opacity="0.1"/>
<path d="M800 379.663V333.475M800 313.763L822.93 300.523V224.475L840 211.233L817.07 224.475V250.951L840 264.193M840 310.379L800 333.473M800 333.473V379.661M800 379.661L840 402.757L880 379.661V333.473M880 333.473L840 310.379M840 310.379L880 333.477M800 260.807L777.07 274.045V300.523L800 313.763L822.93 300.523V274.043L800 260.809V214.621L840 191.527L880 214.621V260.809M840 310.379V264.193M840 330.091L817.07 343.329V369.807L840 383.047L862.93 369.807V343.329L840 330.091ZM857.07 274.047V300.523L880 313.761L902.93 300.521V274.045L880 260.805L857.07 274.047Z" stroke="white" stroke-opacity="0.1" stroke-linecap="square"/>
</g>
<g clip-path="url(#clip41_559_550)">
<path d="M882 237.713H880V239.713H882V237.713Z" fill="white" fill-opacity="0.1"/>
<path d="M880 379.663V333.475M880 313.763L902.93 300.523V224.475L920 211.233L897.07 224.475V250.951L920 264.193M920 310.379L880 333.473M880 333.473V379.661M880 379.661L920 402.757L960 379.661V333.473M960 333.473L920 310.379M920 310.379L960 333.477M880 260.807L857.07 274.045V300.523L880 313.763L902.93 300.523V274.043L880 260.809V214.621L920 191.527L960 214.621V260.809M920 310.379V264.193M920 330.091L897.07 343.329V369.807L920 383.047L942.93 369.807V343.329L920 330.091ZM937.07 274.047V300.523L960 313.761L982.93 300.521V274.045L960 260.805L937.07 274.047Z" stroke="white" stroke-opacity="0.1" stroke-linecap="square"/>
</g>
<g clip-path="url(#clip42_559_550)">
<path d="M962 237.713H960V239.713H962V237.713Z" fill="white" fill-opacity="0.1"/>
<path d="M960 379.663V333.475M960 313.763L982.93 300.523V224.475L1000 211.233L977.07 224.475V250.951L1000 264.193M1000 310.379L960 333.473M960 333.473V379.661M960 379.661L1000 402.757L1040 379.661V333.473M1040 333.473L1000 310.379M1000 310.379L1040 333.477M960 260.807L937.07 274.045V300.523L960 313.763L982.93 300.523V274.043L960 260.809V214.621L1000 191.527L1040 214.621V260.809M1000 310.379V264.193M1000 330.091L977.07 343.329V369.807L1000 383.047L1022.93 369.807V343.329L1000 330.091ZM1017.07 274.047V300.523L1040 313.761L1062.93 300.521V274.045L1040 260.805L1017.07 274.047Z" stroke="white" stroke-opacity="0.1" stroke-linecap="square"/>
</g>
<g clip-path="url(#clip43_559_550)">
<path d="M1042 237.713H1040V239.713H1042V237.713Z" fill="white" fill-opacity="0.1"/>
<path d="M1040 379.663V333.475M1040 313.763L1062.93 300.523V224.475L1080 211.233L1057.07 224.475V250.951L1080 264.193M1080 310.379L1040 333.473M1040 333.473V379.661M1040 379.661L1080 402.757L1120 379.661V333.473M1120 333.473L1080 310.379M1080 310.379L1120 333.477M1040 260.807L1017.07 274.045V300.523L1040 313.763L1062.93 300.523V274.043L1040 260.809V214.621L1080 191.527L1120 214.621V260.809M1080 310.379V264.193M1080 330.091L1057.07 343.329V369.807L1080 383.047L1102.93 369.807V343.329L1080 330.091ZM1097.07 274.047V300.523L1120 313.761L1142.93 300.521V274.045L1120 260.805L1097.07 274.047Z" stroke="white" stroke-opacity="0.1" stroke-linecap="square"/>
</g>
<g clip-path="url(#clip44_559_550)">
<path d="M1122 237.713H1120V239.713H1122V237.713Z" fill="white" fill-opacity="0.1"/>
<path d="M1120 379.663V333.475M1120 313.763L1142.93 300.523V224.475L1160 211.233L1137.07 224.475V250.951L1160 264.193M1160 310.379L1120 333.473M1120 333.473V379.661M1120 379.661L1160 402.757L1200 379.661V333.473M1200 333.473L1160 310.379M1160 310.379L1200 333.477M1120 260.807L1097.07 274.045V300.523L1120 313.763L1142.93 300.523V274.043L1120 260.809V214.621L1160 191.527L1200 214.621V260.809M1160 310.379V264.193M1160 330.091L1137.07 343.329V369.807L1160 383.047L1182.93 369.807V343.329L1160 330.091ZM1177.07 274.047V300.523L1200 313.761L1222.93 300.521V274.045L1200 260.805L1177.07 274.047Z" stroke="white" stroke-opacity="0.1" stroke-linecap="square"/>
</g>
<g clip-path="url(#clip45_559_550)">
<path d="M2 356.568H0V358.568H2V356.568Z" fill="white" fill-opacity="0.1"/>
<path d="M0.000312805 498.519V452.331M0.000312805 432.619L22.9303 419.379V343.331L40.0003 330.089L17.0703 343.331V369.807L40.0003 383.049M40.0003 429.235L0.000312805 452.329M0.000312805 452.329V498.517M0.000312805 498.517L40.0003 521.613L80.0003 498.517V452.329M80.0003 452.329L40.0003 429.235M40.0003 429.235L80.0003 452.333M0.000312805 379.663L-22.9297 392.901V419.379L0.000312805 432.619L22.9303 419.379V392.899L0.000312805 379.665V333.477L40.0003 310.383L80.0003 333.477V379.665M40.0003 429.235V383.049M40.0003 448.947L17.0703 462.185V488.663L40.0003 501.903L62.9303 488.663V462.185L40.0003 448.947ZM57.0703 392.903V419.379L80.0003 432.617L102.93 419.377V392.901L80.0003 379.661L57.0703 392.903Z" stroke="white" stroke-opacity="0.1" stroke-linecap="square"/>
</g>
<g clip-path="url(#clip46_559_550)">
<path d="M82 356.568H80V358.568H82V356.568Z" fill="white" fill-opacity="0.1"/>
<path d="M80.0003 498.519V452.331M80.0003 432.619L102.93 419.379V343.331L120 330.089L97.0703 343.331V369.807L120 383.049M120 429.235L80.0003 452.329M80.0003 452.329V498.517M80.0003 498.517L120 521.613L160 498.517V452.329M160 452.329L120 429.235M120 429.235L160 452.333M80.0003 379.663L57.0703 392.901V419.379L80.0003 432.619L102.93 419.379V392.899L80.0003 379.665V333.477L120 310.383L160 333.477V379.665M120 429.235V383.049M120 448.947L97.0703 462.185V488.663L120 501.903L142.93 488.663V462.185L120 448.947ZM137.07 392.903V419.379L160 432.617L182.93 419.377V392.901L160 379.661L137.07 392.903Z" stroke="white" stroke-opacity="0.1" stroke-linecap="square"/>
</g>
<g clip-path="url(#clip47_559_550)">
<path d="M162 356.568H160V358.568H162V356.568Z" fill="white" fill-opacity="0.1"/>
<path d="M160 498.519V452.331M160 432.619L182.93 419.379V343.331L200 330.089L177.07 343.331V369.807L200 383.049M200 429.235L160 452.329M160 452.329V498.517M160 498.517L200 521.613L240 498.517V452.329M240 452.329L200 429.235M200 429.235L240 452.333M160 379.663L137.07 392.901V419.379L160 432.619L182.93 419.379V392.899L160 379.665V333.477L200 310.383L240 333.477V379.665M200 429.235V383.049M200 448.947L177.07 462.185V488.663L200 501.903L222.93 488.663V462.185L200 448.947ZM217.07 392.903V419.379L240 432.617L262.93 419.377V392.901L240 379.661L217.07 392.903Z" stroke="white" stroke-opacity="0.1" stroke-linecap="square"/>
</g>
<g clip-path="url(#clip48_559_550)">
<path d="M242 356.568H240V358.568H242V356.568Z" fill="white" fill-opacity="0.1"/>
<path d="M240 498.519V452.331M240 432.619L262.93 419.379V343.331L280 330.089L257.07 343.331V369.807L280 383.049M280 429.235L240 452.329M240 452.329V498.517M240 498.517L280 521.613L320 498.517V452.329M320 452.329L280 429.235M280 429.235L320 452.333M240 379.663L217.07 392.901V419.379L240 432.619L262.93 419.379V392.899L240 379.665V333.477L280 310.383L320 333.477V379.665M280 429.235V383.049M280 448.947L257.07 462.185V488.663L280 501.903L302.93 488.663V462.185L280 448.947ZM297.07 392.903V419.379L320 432.617L342.93 419.377V392.901L320 379.661L297.07 392.903Z" stroke="white" stroke-opacity="0.1" stroke-linecap="square"/>
</g>
<g clip-path="url(#clip49_559_550)">
<path d="M322 356.568H320V358.568H322V356.568Z" fill="white" fill-opacity="0.1"/>
<path d="M320 498.519V452.331M320 432.619L342.93 419.379V343.331L360 330.089L337.07 343.331V369.807L360 383.049M360 429.235L320 452.329M320 452.329V498.517M320 498.517L360 521.613L400 498.517V452.329M400 452.329L360 429.235M360 429.235L400 452.333M320 379.663L297.07 392.901V419.379L320 432.619L342.93 419.379V392.899L320 379.665V333.477L360 310.383L400 333.477V379.665M360 429.235V383.049M360 448.947L337.07 462.185V488.663L360 501.903L382.93 488.663V462.185L360 448.947ZM377.07 392.903V419.379L400 432.617L422.93 419.377V392.901L400 379.661L377.07 392.903Z" stroke="white" stroke-opacity="0.1" stroke-linecap="square"/>
</g>
<g clip-path="url(#clip50_559_550)">
<path d="M402 356.568H400V358.568H402V356.568Z" fill="white" fill-opacity="0.1"/>
<path d="M400 498.519V452.331M400 432.619L422.93 419.379V343.331L440 330.089L417.07 343.331V369.807L440 383.049M440 429.235L400 452.329M400 452.329V498.517M400 498.517L440 521.613L480 498.517V452.329M480 452.329L440 429.235M440 429.235L480 452.333M400 379.663L377.07 392.901V419.379L400 432.619L422.93 419.379V392.899L400 379.665V333.477L440 310.383L480 333.477V379.665M440 429.235V383.049M440 448.947L417.07 462.185V488.663L440 501.903L462.93 488.663V462.185L440 448.947ZM457.07 392.903V419.379L480 432.617L502.93 419.377V392.901L480 379.661L457.07 392.903Z" stroke="white" stroke-opacity="0.1" stroke-linecap="square"/>
</g>
<g clip-path="url(#clip51_559_550)">
<path d="M482 356.568H480V358.568H482V356.568Z" fill="white" fill-opacity="0.1"/>
<path d="M480 498.519V452.331M480 432.619L502.93 419.379V343.331L520 330.089L497.07 343.331V369.807L520 383.049M520 429.235L480 452.329M480 452.329V498.517M480 498.517L520 521.613L560 498.517V452.329M560 452.329L520 429.235M520 429.235L560 452.333M480 379.663L457.07 392.901V419.379L480 432.619L502.93 419.379V392.899L480 379.665V333.477L520 310.383L560 333.477V379.665M520 429.235V383.049M520 448.947L497.07 462.185V488.663L520 501.903L542.93 488.663V462.185L520 448.947ZM537.07 392.903V419.379L560 432.617L582.93 419.377V392.901L560 379.661L537.07 392.903Z" stroke="white" stroke-opacity="0.1" stroke-linecap="square"/>
</g>
<g clip-path="url(#clip52_559_550)">
<path d="M562 356.568H560V358.568H562V356.568Z" fill="white" fill-opacity="0.1"/>
<path d="M560 498.519V452.331M560 432.619L582.93 419.379V343.331L600 330.089L577.07 343.331V369.807L600 383.049M600 429.235L560 452.329M560 452.329V498.517M560 498.517L600 521.613L640 498.517V452.329M640 452.329L600 429.235M600 429.235L640 452.333M560 379.663L537.07 392.901V419.379L560 432.619L582.93 419.379V392.899L560 379.665V333.477L600 310.383L640 333.477V379.665M600 429.235V383.049M600 448.947L577.07 462.185V488.663L600 501.903L622.93 488.663V462.185L600 448.947ZM617.07 392.903V419.379L640 432.617L662.93 419.377V392.901L640 379.661L617.07 392.903Z" stroke="white" stroke-opacity="0.1" stroke-linecap="square"/>
</g>
<g clip-path="url(#clip53_559_550)">
<path d="M642 356.568H640V358.568H642V356.568Z" fill="white" fill-opacity="0.1"/>
<path d="M640 498.519V452.331M640 432.619L662.93 419.379V343.331L680 330.089L657.07 343.331V369.807L680 383.049M680 429.235L640 452.329M640 452.329V498.517M640 498.517L680 521.613L720 498.517V452.329M720 452.329L680 429.235M680 429.235L720 452.333M640 379.663L617.07 392.901V419.379L640 432.619L662.93 419.379V392.899L640 379.665V333.477L680 310.383L720 333.477V379.665M680 429.235V383.049M680 448.947L657.07 462.185V488.663L680 501.903L702.93 488.663V462.185L680 448.947ZM697.07 392.903V419.379L720 432.617L742.93 419.377V392.901L720 379.661L697.07 392.903Z" stroke="white" stroke-opacity="0.1" stroke-linecap="square"/>
</g>
<g clip-path="url(#clip54_559_550)">
<path d="M722 356.568H720V358.568H722V356.568Z" fill="white" fill-opacity="0.1"/>
<path d="M720 498.519V452.331M720 432.619L742.93 419.379V343.331L760 330.089L737.07 343.331V369.807L760 383.049M760 429.235L720 452.329M720 452.329V498.517M720 498.517L760 521.613L800 498.517V452.329M800 452.329L760 429.235M760 429.235L800 452.333M720 379.663L697.07 392.901V419.379L720 432.619L742.93 419.379V392.899L720 379.665V333.477L760 310.383L800 333.477V379.665M760 429.235V383.049M760 448.947L737.07 462.185V488.663L760 501.903L782.93 488.663V462.185L760 448.947ZM777.07 392.903V419.379L800 432.617L822.93 419.377V392.901L800 379.661L777.07 392.903Z" stroke="white" stroke-opacity="0.1" stroke-linecap="square"/>
</g>
<g clip-path="url(#clip55_559_550)">
<path d="M802 356.568H800V358.568H802V356.568Z" fill="white" fill-opacity="0.1"/>
<path d="M800 498.519V452.331M800 432.619L822.93 419.379V343.331L840 330.089L817.07 343.331V369.807L840 383.049M840 429.235L800 452.329M800 452.329V498.517M800 498.517L840 521.613L880 498.517V452.329M880 452.329L840 429.235M840 429.235L880 452.333M800 379.663L777.07 392.901V419.379L800 432.619L822.93 419.379V392.899L800 379.665V333.477L840 310.383L880 333.477V379.665M840 429.235V383.049M840 448.947L817.07 462.185V488.663L840 501.903L862.93 488.663V462.185L840 448.947ZM857.07 392.903V419.379L880 432.617L902.93 419.377V392.901L880 379.661L857.07 392.903Z" stroke="white" stroke-opacity="0.1" stroke-linecap="square"/>
</g>
<g clip-path="url(#clip56_559_550)">
<path d="M882 356.568H880V358.568H882V356.568Z" fill="white" fill-opacity="0.1"/>
<path d="M880 498.519V452.331M880 432.619L902.93 419.379V343.331L920 330.089L897.07 343.331V369.807L920 383.049M920 429.235L880 452.329M880 452.329V498.517M880 498.517L920 521.613L960 498.517V452.329M960 452.329L920 429.235M920 429.235L960 452.333M880 379.663L857.07 392.901V419.379L880 432.619L902.93 419.379V392.899L880 379.665V333.477L920 310.383L960 333.477V379.665M920 429.235V383.049M920 448.947L897.07 462.185V488.663L920 501.903L942.93 488.663V462.185L920 448.947ZM937.07 392.903V419.379L960 432.617L982.93 419.377V392.901L960 379.661L937.07 392.903Z" stroke="white" stroke-opacity="0.1" stroke-linecap="square"/>
</g>
<g clip-path="url(#clip57_559_550)">
<path d="M962 356.568H960V358.568H962V356.568Z" fill="white" fill-opacity="0.1"/>
<path d="M960 498.519V452.331M960 432.619L982.93 419.379V343.331L1000 330.089L977.07 343.331V369.807L1000 383.049M1000 429.235L960 452.329M960 452.329V498.517M960 498.517L1000 521.613L1040 498.517V452.329M1040 452.329L1000 429.235M1000 429.235L1040 452.333M960 379.663L937.07 392.901V419.379L960 432.619L982.93 419.379V392.899L960 379.665V333.477L1000 310.383L1040 333.477V379.665M1000 429.235V383.049M1000 448.947L977.07 462.185V488.663L1000 501.903L1022.93 488.663V462.185L1000 448.947ZM1017.07 392.903V419.379L1040 432.617L1062.93 419.377V392.901L1040 379.661L1017.07 392.903Z" stroke="white" stroke-opacity="0.1" stroke-linecap="square"/>
</g>
<g clip-path="url(#clip58_559_550)">
<path d="M1042 356.568H1040V358.568H1042V356.568Z" fill="white" fill-opacity="0.1"/>
<path d="M1040 498.519V452.331M1040 432.619L1062.93 419.379V343.331L1080 330.089L1057.07 343.331V369.807L1080 383.049M1080 429.235L1040 452.329M1040 452.329V498.517M1040 498.517L1080 521.613L1120 498.517V452.329M1120 452.329L1080 429.235M1080 429.235L1120 452.333M1040 379.663L1017.07 392.901V419.379L1040 432.619L1062.93 419.379V392.899L1040 379.665V333.477L1080 310.383L1120 333.477V379.665M1080 429.235V383.049M1080 448.947L1057.07 462.185V488.663L1080 501.903L1102.93 488.663V462.185L1080 448.947ZM1097.07 392.903V419.379L1120 432.617L1142.93 419.377V392.901L1120 379.661L1097.07 392.903Z" stroke="white" stroke-opacity="0.1" stroke-linecap="square"/>
</g>
<g clip-path="url(#clip59_559_550)">
<path d="M1122 356.568H1120V358.568H1122V356.568Z" fill="white" fill-opacity="0.1"/>
<path d="M1120 498.519V452.331M1120 432.619L1142.93 419.379V343.331L1160 330.089L1137.07 343.331V369.807L1160 383.049M1160 429.235L1120 452.329M1120 452.329V498.517M1120 498.517L1160 521.613L1200 498.517V452.329M1200 452.329L1160 429.235M1160 429.235L1200 452.333M1120 379.663L1097.07 392.901V419.379L1120 432.619L1142.93 419.379V392.899L1120 379.665V333.477L1160 310.383L1200 333.477V379.665M1160 429.235V383.049M1160 448.947L1137.07 462.185V488.663L1160 501.903L1182.93 488.663V462.185L1160 448.947ZM1177.07 392.903V419.379L1200 432.617L1222.93 419.377V392.901L1200 379.661L1177.07 392.903Z" stroke="white" stroke-opacity="0.1" stroke-linecap="square"/>
</g>
<g clip-path="url(#clip60_559_550)">
<path d="M2 475.424H0V477.424H2V475.424Z" fill="white" fill-opacity="0.1"/>
<path d="M0.000312805 617.374V571.186M0.000312805 551.474L22.9303 538.234V462.186L40.0003 448.944L17.0703 462.186V488.662L40.0003 501.904M40.0003 548.09L0.000312805 571.184M0.000312805 571.184V617.372M0.000312805 617.372L40.0003 640.468L80.0003 617.372V571.184M80.0003 571.184L40.0003 548.09M40.0003 548.09L80.0003 571.188M0.000312805 498.518L-22.9297 511.756V538.234L0.000312805 551.474L22.9303 538.234V511.754L0.000312805 498.52V452.332L40.0003 429.238L80.0003 452.332V498.52M40.0003 548.09V501.904M40.0003 567.802L17.0703 581.04V607.518L40.0003 620.758L62.9303 607.518V581.04L40.0003 567.802ZM57.0703 511.758V538.234L80.0003 551.472L102.93 538.232V511.756L80.0003 498.516L57.0703 511.758Z" stroke="white" stroke-opacity="0.1" stroke-linecap="square"/>
</g>
<g clip-path="url(#clip61_559_550)">
<path d="M82 475.424H80V477.424H82V475.424Z" fill="white" fill-opacity="0.1"/>
<path d="M80.0003 617.374V571.186M80.0003 551.474L102.93 538.234V462.186L120 448.944L97.0703 462.186V488.662L120 501.904M120 548.09L80.0003 571.184M80.0003 571.184V617.372M80.0003 617.372L120 640.468L160 617.372V571.184M160 571.184L120 548.09M120 548.09L160 571.188M80.0003 498.518L57.0703 511.756V538.234L80.0003 551.474L102.93 538.234V511.754L80.0003 498.52V452.332L120 429.238L160 452.332V498.52M120 548.09V501.904M120 567.802L97.0703 581.04V607.518L120 620.758L142.93 607.518V581.04L120 567.802ZM137.07 511.758V538.234L160 551.472L182.93 538.232V511.756L160 498.516L137.07 511.758Z" stroke="white" stroke-opacity="0.1" stroke-linecap="square"/>
</g>
<g clip-path="url(#clip62_559_550)">
<path d="M162 475.424H160V477.424H162V475.424Z" fill="white" fill-opacity="0.1"/>
<path d="M160 617.374V571.186M160 551.474L182.93 538.234V462.186L200 448.944L177.07 462.186V488.662L200 501.904M200 548.09L160 571.184M160 571.184V617.372M160 617.372L200 640.468L240 617.372V571.184M240 571.184L200 548.09M200 548.09L240 571.188M160 498.518L137.07 511.756V538.234L160 551.474L182.93 538.234V511.754L160 498.52V452.332L200 429.238L240 452.332V498.52M200 548.09V501.904M200 567.802L177.07 581.04V607.518L200 620.758L222.93 607.518V581.04L200 567.802ZM217.07 511.758V538.234L240 551.472L262.93 538.232V511.756L240 498.516L217.07 511.758Z" stroke="white" stroke-opacity="0.1" stroke-linecap="square"/>
</g>
<g clip-path="url(#clip63_559_550)">
<path d="M242 475.424H240V477.424H242V475.424Z" fill="white" fill-opacity="0.1"/>
<path d="M240 617.374V571.186M240 551.474L262.93 538.234V462.186L280 448.944L257.07 462.186V488.662L280 501.904M280 548.09L240 571.184M240 571.184V617.372M240 617.372L280 640.468L320 617.372V571.184M320 571.184L280 548.09M280 548.09L320 571.188M240 498.518L217.07 511.756V538.234L240 551.474L262.93 538.234V511.754L240 498.52V452.332L280 429.238L320 452.332V498.52M280 548.09V501.904M280 567.802L257.07 581.04V607.518L280 620.758L302.93 607.518V581.04L280 567.802ZM297.07 511.758V538.234L320 551.472L342.93 538.232V511.756L320 498.516L297.07 511.758Z" stroke="white" stroke-opacity="0.1" stroke-linecap="square"/>
</g>
<g clip-path="url(#clip64_559_550)">
<path d="M322 475.424H320V477.424H322V475.424Z" fill="white" fill-opacity="0.1"/>
<path d="M320 617.374V571.186M320 551.474L342.93 538.234V462.186L360 448.944L337.07 462.186V488.662L360 501.904M360 548.09L320 571.184M320 571.184V617.372M320 617.372L360 640.468L400 617.372V571.184M400 571.184L360 548.09M360 548.09L400 571.188M320 498.518L297.07 511.756V538.234L320 551.474L342.93 538.234V511.754L320 498.52V452.332L360 429.238L400 452.332V498.52M360 548.09V501.904M360 567.802L337.07 581.04V607.518L360 620.758L382.93 607.518V581.04L360 567.802ZM377.07 511.758V538.234L400 551.472L422.93 538.232V511.756L400 498.516L377.07 511.758Z" stroke="white" stroke-opacity="0.1" stroke-linecap="square"/>
</g>
<g clip-path="url(#clip65_559_550)">
<path d="M402 475.424H400V477.424H402V475.424Z" fill="white" fill-opacity="0.1"/>
<path d="M400 617.374V571.186M400 551.474L422.93 538.234V462.186L440 448.944L417.07 462.186V488.662L440 501.904M440 548.09L400 571.184M400 571.184V617.372M400 617.372L440 640.468L480 617.372V571.184M480 571.184L440 548.09M440 548.09L480 571.188M400 498.518L377.07 511.756V538.234L400 551.474L422.93 538.234V511.754L400 498.52V452.332L440 429.238L480 452.332V498.52M440 548.09V501.904M440 567.802L417.07 581.04V607.518L440 620.758L462.93 607.518V581.04L440 567.802ZM457.07 511.758V538.234L480 551.472L502.93 538.232V511.756L480 498.516L457.07 511.758Z" stroke="white" stroke-opacity="0.1" stroke-linecap="square"/>
</g>
<g clip-path="url(#clip66_559_550)">
<path d="M482 475.424H480V477.424H482V475.424Z" fill="white" fill-opacity="0.1"/>
<path d="M480 617.374V571.186M480 551.474L502.93 538.234V462.186L520 448.944L497.07 462.186V488.662L520 501.904M520 548.09L480 571.184M480 571.184V617.372M480 617.372L520 640.468L560 617.372V571.184M560 571.184L520 548.09M520 548.09L560 571.188M480 498.518L457.07 511.756V538.234L480 551.474L502.93 538.234V511.754L480 498.52V452.332L520 429.238L560 452.332V498.52M520 548.09V501.904M520 567.802L497.07 581.04V607.518L520 620.758L542.93 607.518V581.04L520 567.802ZM537.07 511.758V538.234L560 551.472L582.93 538.232V511.756L560 498.516L537.07 511.758Z" stroke="white" stroke-opacity="0.1" stroke-linecap="square"/>
</g>
<g clip-path="url(#clip67_559_550)">
<path d="M562 475.424H560V477.424H562V475.424Z" fill="white" fill-opacity="0.1"/>
<path d="M560 617.374V571.186M560 551.474L582.93 538.234V462.186L600 448.944L577.07 462.186V488.662L600 501.904M600 548.09L560 571.184M560 571.184V617.372M560 617.372L600 640.468L640 617.372V571.184M640 571.184L600 548.09M600 548.09L640 571.188M560 498.518L537.07 511.756V538.234L560 551.474L582.93 538.234V511.754L560 498.52V452.332L600 429.238L640 452.332V498.52M600 548.09V501.904M600 567.802L577.07 581.04V607.518L600 620.758L622.93 607.518V581.04L600 567.802ZM617.07 511.758V538.234L640 551.472L662.93 538.232V511.756L640 498.516L617.07 511.758Z" stroke="white" stroke-opacity="0.1" stroke-linecap="square"/>
</g>
<g clip-path="url(#clip68_559_550)">
<path d="M642 475.424H640V477.424H642V475.424Z" fill="white" fill-opacity="0.1"/>
<path d="M640 617.374V571.186M640 551.474L662.93 538.234V462.186L680 448.944L657.07 462.186V488.662L680 501.904M680 548.09L640 571.184M640 571.184V617.372M640 617.372L680 640.468L720 617.372V571.184M720 571.184L680 548.09M680 548.09L720 571.188M640 498.518L617.07 511.756V538.234L640 551.474L662.93 538.234V511.754L640 498.52V452.332L680 429.238L720 452.332V498.52M680 548.09V501.904M680 567.802L657.07 581.04V607.518L680 620.758L702.93 607.518V581.04L680 567.802ZM697.07 511.758V538.234L720 551.472L742.93 538.232V511.756L720 498.516L697.07 511.758Z" stroke="white" stroke-opacity="0.1" stroke-linecap="square"/>
</g>
<g clip-path="url(#clip69_559_550)">
<path d="M722 475.424H720V477.424H722V475.424Z" fill="white" fill-opacity="0.1"/>
<path d="M720 617.374V571.186M720 551.474L742.93 538.234V462.186L760 448.944L737.07 462.186V488.662L760 501.904M760 548.09L720 571.184M720 571.184V617.372M720 617.372L760 640.468L800 617.372V571.184M800 571.184L760 548.09M760 548.09L800 571.188M720 498.518L697.07 511.756V538.234L720 551.474L742.93 538.234V511.754L720 498.52V452.332L760 429.238L800 452.332V498.52M760 548.09V501.904M760 567.802L737.07 581.04V607.518L760 620.758L782.93 607.518V581.04L760 567.802ZM777.07 511.758V538.234L800 551.472L822.93 538.232V511.756L800 498.516L777.07 511.758Z" stroke="white" stroke-opacity="0.1" stroke-linecap="square"/>
</g>
<g clip-path="url(#clip70_559_550)">
<path d="M802 475.424H800V477.424H802V475.424Z" fill="white" fill-opacity="0.1"/>
<path d="M800 617.374V571.186M800 551.474L822.93 538.234V462.186L840 448.944L817.07 462.186V488.662L840 501.904M840 548.09L800 571.184M800 571.184V617.372M800 617.372L840 640.468L880 617.372V571.184M880 571.184L840 548.09M840 548.09L880 571.188M800 498.518L777.07 511.756V538.234L800 551.474L822.93 538.234V511.754L800 498.52V452.332L840 429.238L880 452.332V498.52M840 548.09V501.904M840 567.802L817.07 581.04V607.518L840 620.758L862.93 607.518V581.04L840 567.802ZM857.07 511.758V538.234L880 551.472L902.93 538.232V511.756L880 498.516L857.07 511.758Z" stroke="white" stroke-opacity="0.1" stroke-linecap="square"/>
</g>
<g clip-path="url(#clip71_559_550)">
<path d="M882 475.424H880V477.424H882V475.424Z" fill="white" fill-opacity="0.1"/>
<path d="M880 617.374V571.186M880 551.474L902.93 538.234V462.186L920 448.944L897.07 462.186V488.662L920 501.904M920 548.09L880 571.184M880 571.184V617.372M880 617.372L920 640.468L960 617.372V571.184M960 571.184L920 548.09M920 548.09L960 571.188M880 498.518L857.07 511.756V538.234L880 551.474L902.93 538.234V511.754L880 498.52V452.332L920 429.238L960 452.332V498.52M920 548.09V501.904M920 567.802L897.07 581.04V607.518L920 620.758L942.93 607.518V581.04L920 567.802ZM937.07 511.758V538.234L960 551.472L982.93 538.232V511.756L960 498.516L937.07 511.758Z" stroke="white" stroke-opacity="0.1" stroke-linecap="square"/>
</g>
<g clip-path="url(#clip72_559_550)">
<path d="M962 475.424H960V477.424H962V475.424Z" fill="white" fill-opacity="0.1"/>
<path d="M960 617.374V571.186M960 551.474L982.93 538.234V462.186L1000 448.944L977.07 462.186V488.662L1000 501.904M1000 548.09L960 571.184M960 571.184V617.372M960 617.372L1000 640.468L1040 617.372V571.184M1040 571.184L1000 548.09M1000 548.09L1040 571.188M960 498.518L937.07 511.756V538.234L960 551.474L982.93 538.234V511.754L960 498.52V452.332L1000 429.238L1040 452.332V498.52M1000 548.09V501.904M1000 567.802L977.07 581.04V607.518L1000 620.758L1022.93 607.518V581.04L1000 567.802ZM1017.07 511.758V538.234L1040 551.472L1062.93 538.232V511.756L1040 498.516L1017.07 511.758Z" stroke="white" stroke-opacity="0.1" stroke-linecap="square"/>
</g>
<g clip-path="url(#clip73_559_550)">
<path d="M1042 475.424H1040V477.424H1042V475.424Z" fill="white" fill-opacity="0.1"/>
<path d="M1040 617.374V571.186M1040 551.474L1062.93 538.234V462.186L1080 448.944L1057.07 462.186V488.662L1080 501.904M1080 548.09L1040 571.184M1040 571.184V617.372M1040 617.372L1080 640.468L1120 617.372V571.184M1120 571.184L1080 548.09M1080 548.09L1120 571.188M1040 498.518L1017.07 511.756V538.234L1040 551.474L1062.93 538.234V511.754L1040 498.52V452.332L1080 429.238L1120 452.332V498.52M1080 548.09V501.904M1080 567.802L1057.07 581.04V607.518L1080 620.758L1102.93 607.518V581.04L1080 567.802ZM1097.07 511.758V538.234L1120 551.472L1142.93 538.232V511.756L1120 498.516L1097.07 511.758Z" stroke="white" stroke-opacity="0.1" stroke-linecap="square"/>
</g>
<g clip-path="url(#clip74_559_550)">
<path d="M1122 475.424H1120V477.424H1122V475.424Z" fill="white" fill-opacity="0.1"/>
<path d="M1120 617.374V571.186M1120 551.474L1142.93 538.234V462.186L1160 448.944L1137.07 462.186V488.662L1160 501.904M1160 548.09L1120 571.184M1120 571.184V617.372M1120 617.372L1160 640.468L1200 617.372V571.184M1200 571.184L1160 548.09M1160 548.09L1200 571.188M1120 498.518L1097.07 511.756V538.234L1120 551.474L1142.93 538.234V511.754L1120 498.52V452.332L1160 429.238L1200 452.332V498.52M1160 548.09V501.904M1160 567.802L1137.07 581.04V607.518L1160 620.758L1182.93 607.518V581.04L1160 567.802ZM1177.07 511.758V538.234L1200 551.472L1222.93 538.232V511.756L1200 498.516L1177.07 511.758Z" stroke="white" stroke-opacity="0.1" stroke-linecap="square"/>
</g>
<g clip-path="url(#clip75_559_550)">
<path d="M2 594.279H0V596.279H2V594.279Z" fill="white" fill-opacity="0.1"/>
<path d="M0.000312805 736.23V690.042M0.000312805 670.33L22.9303 657.09V581.042L40.0003 567.8L17.0703 581.042V607.518L40.0003 620.76M40.0003 666.946L0.000312805 690.04M0.000312805 690.04V736.228M0.000312805 736.228L40.0003 759.324L80.0003 736.228V690.04M80.0003 690.04L40.0003 666.946M40.0003 666.946L80.0003 690.044M0.000312805 617.374L-22.9297 630.612V657.09L0.000312805 670.33L22.9303 657.09V630.61L0.000312805 617.376V571.188L40.0003 548.094L80.0003 571.188V617.376M40.0003 666.946V620.76M40.0003 686.658L17.0703 699.896V726.374L40.0003 739.614L62.9303 726.374V699.896L40.0003 686.658ZM57.0703 630.614V657.09L80.0003 670.328L102.93 657.088V630.612L80.0003 617.372L57.0703 630.614Z" stroke="white" stroke-opacity="0.1" stroke-linecap="square"/>
</g>
<g clip-path="url(#clip76_559_550)">
<path d="M82 594.279H80V596.279H82V594.279Z" fill="white" fill-opacity="0.1"/>
<path d="M80.0003 736.23V690.042M80.0003 670.33L102.93 657.09V581.042L120 567.8L97.0703 581.042V607.518L120 620.76M120 666.946L80.0003 690.04M80.0003 690.04V736.228M80.0003 736.228L120 759.324L160 736.228V690.04M160 690.04L120 666.946M120 666.946L160 690.044M80.0003 617.374L57.0703 630.612V657.09L80.0003 670.33L102.93 657.09V630.61L80.0003 617.376V571.188L120 548.094L160 571.188V617.376M120 666.946V620.76M120 686.658L97.0703 699.896V726.374L120 739.614L142.93 726.374V699.896L120 686.658ZM137.07 630.614V657.09L160 670.328L182.93 657.088V630.612L160 617.372L137.07 630.614Z" stroke="white" stroke-opacity="0.1" stroke-linecap="square"/>
</g>
<g clip-path="url(#clip77_559_550)">
<path d="M162 594.279H160V596.279H162V594.279Z" fill="white" fill-opacity="0.1"/>
<path d="M160 736.23V690.042M160 670.33L182.93 657.09V581.042L200 567.8L177.07 581.042V607.518L200 620.76M200 666.946L160 690.04M160 690.04V736.228M160 736.228L200 759.324L240 736.228V690.04M240 690.04L200 666.946M200 666.946L240 690.044M160 617.374L137.07 630.612V657.09L160 670.33L182.93 657.09V630.61L160 617.376V571.188L200 548.094L240 571.188V617.376M200 666.946V620.76M200 686.658L177.07 699.896V726.374L200 739.614L222.93 726.374V699.896L200 686.658ZM217.07 630.614V657.09L240 670.328L262.93 657.088V630.612L240 617.372L217.07 630.614Z" stroke="white" stroke-opacity="0.1" stroke-linecap="square"/>
</g>
<g clip-path="url(#clip78_559_550)">
<path d="M242 594.279H240V596.279H242V594.279Z" fill="white" fill-opacity="0.1"/>
<path d="M240 736.23V690.042M240 670.33L262.93 657.09V581.042L280 567.8L257.07 581.042V607.518L280 620.76M280 666.946L240 690.04M240 690.04V736.228M240 736.228L280 759.324L320 736.228V690.04M320 690.04L280 666.946M280 666.946L320 690.044M240 617.374L217.07 630.612V657.09L240 670.33L262.93 657.09V630.61L240 617.376V571.188L280 548.094L320 571.188V617.376M280 666.946V620.76M280 686.658L257.07 699.896V726.374L280 739.614L302.93 726.374V699.896L280 686.658ZM297.07 630.614V657.09L320 670.328L342.93 657.088V630.612L320 617.372L297.07 630.614Z" stroke="white" stroke-opacity="0.1" stroke-linecap="square"/>
</g>
<g clip-path="url(#clip79_559_550)">
<path d="M322 594.279H320V596.279H322V594.279Z" fill="white" fill-opacity="0.1"/>
<path d="M320 736.23V690.042M320 670.33L342.93 657.09V581.042L360 567.8L337.07 581.042V607.518L360 620.76M360 666.946L320 690.04M320 690.04V736.228M320 736.228L360 759.324L400 736.228V690.04M400 690.04L360 666.946M360 666.946L400 690.044M320 617.374L297.07 630.612V657.09L320 670.33L342.93 657.09V630.61L320 617.376V571.188L360 548.094L400 571.188V617.376M360 666.946V620.76M360 686.658L337.07 699.896V726.374L360 739.614L382.93 726.374V699.896L360 686.658ZM377.07 630.614V657.09L400 670.328L422.93 657.088V630.612L400 617.372L377.07 630.614Z" stroke="white" stroke-opacity="0.1" stroke-linecap="square"/>
</g>
<g clip-path="url(#clip80_559_550)">
<path d="M402 594.279H400V596.279H402V594.279Z" fill="white" fill-opacity="0.1"/>
<path d="M400 736.23V690.042M400 670.33L422.93 657.09V581.042L440 567.8L417.07 581.042V607.518L440 620.76M440 666.946L400 690.04M400 690.04V736.228M400 736.228L440 759.324L480 736.228V690.04M480 690.04L440 666.946M440 666.946L480 690.044M400 617.374L377.07 630.612V657.09L400 670.33L422.93 657.09V630.61L400 617.376V571.188L440 548.094L480 571.188V617.376M440 666.946V620.76M440 686.658L417.07 699.896V726.374L440 739.614L462.93 726.374V699.896L440 686.658ZM457.07 630.614V657.09L480 670.328L502.93 657.088V630.612L480 617.372L457.07 630.614Z" stroke="white" stroke-opacity="0.1" stroke-linecap="square"/>
</g>
<g clip-path="url(#clip81_559_550)">
<path d="M482 594.279H480V596.279H482V594.279Z" fill="white" fill-opacity="0.1"/>
<path d="M480 736.23V690.042M480 670.33L502.93 657.09V581.042L520 567.8L497.07 581.042V607.518L520 620.76M520 666.946L480 690.04M480 690.04V736.228M480 736.228L520 759.324L560 736.228V690.04M560 690.04L520 666.946M520 666.946L560 690.044M480 617.374L457.07 630.612V657.09L480 670.33L502.93 657.09V630.61L480 617.376V571.188L520 548.094L560 571.188V617.376M520 666.946V620.76M520 686.658L497.07 699.896V726.374L520 739.614L542.93 726.374V699.896L520 686.658ZM537.07 630.614V657.09L560 670.328L582.93 657.088V630.612L560 617.372L537.07 630.614Z" stroke="white" stroke-opacity="0.1" stroke-linecap="square"/>
</g>
<g clip-path="url(#clip82_559_550)">
<path d="M562 594.279H560V596.279H562V594.279Z" fill="white" fill-opacity="0.1"/>
<path d="M560 736.23V690.042M560 670.33L582.93 657.09V581.042L600 567.8L577.07 581.042V607.518L600 620.76M600 666.946L560 690.04M560 690.04V736.228M560 736.228L600 759.324L640 736.228V690.04M640 690.04L600 666.946M600 666.946L640 690.044M560 617.374L537.07 630.612V657.09L560 670.33L582.93 657.09V630.61L560 617.376V571.188L600 548.094L640 571.188V617.376M600 666.946V620.76M600 686.658L577.07 699.896V726.374L600 739.614L622.93 726.374V699.896L600 686.658ZM617.07 630.614V657.09L640 670.328L662.93 657.088V630.612L640 617.372L617.07 630.614Z" stroke="white" stroke-opacity="0.1" stroke-linecap="square"/>
</g>
<g clip-path="url(#clip83_559_550)">
<path d="M642 594.279H640V596.279H642V594.279Z" fill="white" fill-opacity="0.1"/>
<path d="M640 736.23V690.042M640 670.33L662.93 657.09V581.042L680 567.8L657.07 581.042V607.518L680 620.76M680 666.946L640 690.04M640 690.04V736.228M640 736.228L680 759.324L720 736.228V690.04M720 690.04L680 666.946M680 666.946L720 690.044M640 617.374L617.07 630.612V657.09L640 670.33L662.93 657.09V630.61L640 617.376V571.188L680 548.094L720 571.188V617.376M680 666.946V620.76M680 686.658L657.07 699.896V726.374L680 739.614L702.93 726.374V699.896L680 686.658ZM697.07 630.614V657.09L720 670.328L742.93 657.088V630.612L720 617.372L697.07 630.614Z" stroke="white" stroke-opacity="0.1" stroke-linecap="square"/>
</g>
<g clip-path="url(#clip84_559_550)">
<path d="M722 594.279H720V596.279H722V594.279Z" fill="white" fill-opacity="0.1"/>
<path d="M720 736.23V690.042M720 670.33L742.93 657.09V581.042L760 567.8L737.07 581.042V607.518L760 620.76M760 666.946L720 690.04M720 690.04V736.228M720 736.228L760 759.324L800 736.228V690.04M800 690.04L760 666.946M760 666.946L800 690.044M720 617.374L697.07 630.612V657.09L720 670.33L742.93 657.09V630.61L720 617.376V571.188L760 548.094L800 571.188V617.376M760 666.946V620.76M760 686.658L737.07 699.896V726.374L760 739.614L782.93 726.374V699.896L760 686.658ZM777.07 630.614V657.09L800 670.328L822.93 657.088V630.612L800 617.372L777.07 630.614Z" stroke="white" stroke-opacity="0.1" stroke-linecap="square"/>
</g>
<g clip-path="url(#clip85_559_550)">
<path d="M802 594.279H800V596.279H802V594.279Z" fill="white" fill-opacity="0.1"/>
<path d="M800 736.23V690.042M800 670.33L822.93 657.09V581.042L840 567.8L817.07 581.042V607.518L840 620.76M840 666.946L800 690.04M800 690.04V736.228M800 736.228L840 759.324L880 736.228V690.04M880 690.04L840 666.946M840 666.946L880 690.044M800 617.374L777.07 630.612V657.09L800 670.33L822.93 657.09V630.61L800 617.376V571.188L840 548.094L880 571.188V617.376M840 666.946V620.76M840 686.658L817.07 699.896V726.374L840 739.614L862.93 726.374V699.896L840 686.658ZM857.07 630.614V657.09L880 670.328L902.93 657.088V630.612L880 617.372L857.07 630.614Z" stroke="white" stroke-opacity="0.1" stroke-linecap="square"/>
</g>
<g clip-path="url(#clip86_559_550)">
<path d="M882 594.279H880V596.279H882V594.279Z" fill="white" fill-opacity="0.1"/>
<path d="M880 736.23V690.042M880 670.33L902.93 657.09V581.042L920 567.8L897.07 581.042V607.518L920 620.76M920 666.946L880 690.04M880 690.04V736.228M880 736.228L920 759.324L960 736.228V690.04M960 690.04L920 666.946M920 666.946L960 690.044M880 617.374L857.07 630.612V657.09L880 670.33L902.93 657.09V630.61L880 617.376V571.188L920 548.094L960 571.188V617.376M920 666.946V620.76M920 686.658L897.07 699.896V726.374L920 739.614L942.93 726.374V699.896L920 686.658ZM937.07 630.614V657.09L960 670.328L982.93 657.088V630.612L960 617.372L937.07 630.614Z" stroke="white" stroke-opacity="0.1" stroke-linecap="square"/>
</g>
<g clip-path="url(#clip87_559_550)">
<path d="M962 594.279H960V596.279H962V594.279Z" fill="white" fill-opacity="0.1"/>
<path d="M960 736.23V690.042M960 670.33L982.93 657.09V581.042L1000 567.8L977.07 581.042V607.518L1000 620.76M1000 666.946L960 690.04M960 690.04V736.228M960 736.228L1000 759.324L1040 736.228V690.04M1040 690.04L1000 666.946M1000 666.946L1040 690.044M960 617.374L937.07 630.612V657.09L960 670.33L982.93 657.09V630.61L960 617.376V571.188L1000 548.094L1040 571.188V617.376M1000 666.946V620.76M1000 686.658L977.07 699.896V726.374L1000 739.614L1022.93 726.374V699.896L1000 686.658ZM1017.07 630.614V657.09L1040 670.328L1062.93 657.088V630.612L1040 617.372L1017.07 630.614Z" stroke="white" stroke-opacity="0.1" stroke-linecap="square"/>
</g>
<g clip-path="url(#clip88_559_550)">
<path d="M1042 594.279H1040V596.279H1042V594.279Z" fill="white" fill-opacity="0.1"/>
<path d="M1040 736.23V690.042M1040 670.33L1062.93 657.09V581.042L1080 567.8L1057.07 581.042V607.518L1080 620.76M1080 666.946L1040 690.04M1040 690.04V736.228M1040 736.228L1080 759.324L1120 736.228V690.04M1120 690.04L1080 666.946M1080 666.946L1120 690.044M1040 617.374L1017.07 630.612V657.09L1040 670.33L1062.93 657.09V630.61L1040 617.376V571.188L1080 548.094L1120 571.188V617.376M1080 666.946V620.76M1080 686.658L1057.07 699.896V726.374L1080 739.614L1102.93 726.374V699.896L1080 686.658ZM1097.07 630.614V657.09L1120 670.328L1142.93 657.088V630.612L1120 617.372L1097.07 630.614Z" stroke="white" stroke-opacity="0.1" stroke-linecap="square"/>
</g>
<g clip-path="url(#clip89_559_550)">
<path d="M1122 594.279H1120V596.279H1122V594.279Z" fill="white" fill-opacity="0.1"/>
<path d="M1120 736.23V690.042M1120 670.33L1142.93 657.09V581.042L1160 567.8L1137.07 581.042V607.518L1160 620.76M1160 666.946L1120 690.04M1120 690.04V736.228M1120 736.228L1160 759.324L1200 736.228V690.04M1200 690.04L1160 666.946M1160 666.946L1200 690.044M1120 617.374L1097.07 630.612V657.09L1120 670.33L1142.93 657.09V630.61L1120 617.376V571.188L1160 548.094L1200 571.188V617.376M1160 666.946V620.76M1160 686.658L1137.07 699.896V726.374L1160 739.614L1182.93 726.374V699.896L1160 686.658ZM1177.07 630.614V657.09L1200 670.328L1222.93 657.088V630.612L1200 617.372L1177.07 630.614Z" stroke="white" stroke-opacity="0.1" stroke-linecap="square"/>
</g>
<defs>
<clipPath id="clip0_559_550">
<rect width="80" height="118.856" fill="white"/>
</clipPath>
<clipPath id="clip1_559_550">
<rect width="80" height="118.856" fill="white" transform="translate(80)"/>
</clipPath>
<clipPath id="clip2_559_550">
<rect width="80" height="118.856" fill="white" transform="translate(160)"/>
</clipPath>
<clipPath id="clip3_559_550">
<rect width="80" height="118.856" fill="white" transform="translate(240)"/>
</clipPath>
<clipPath id="clip4_559_550">
<rect width="80" height="118.856" fill="white" transform="translate(320)"/>
</clipPath>
<clipPath id="clip5_559_550">
<rect width="80" height="118.856" fill="white" transform="translate(400)"/>
</clipPath>
<clipPath id="clip6_559_550">
<rect width="80" height="118.856" fill="white" transform="translate(480)"/>
</clipPath>
<clipPath id="clip7_559_550">
<rect width="80" height="118.856" fill="white" transform="translate(560)"/>
</clipPath>
<clipPath id="clip8_559_550">
<rect width="80" height="118.856" fill="white" transform="translate(640)"/>
</clipPath>
<clipPath id="clip9_559_550">
<rect width="80" height="118.856" fill="white" transform="translate(720)"/>
</clipPath>
<clipPath id="clip10_559_550">
<rect width="80" height="118.856" fill="white" transform="translate(800)"/>
</clipPath>
<clipPath id="clip11_559_550">
<rect width="80" height="118.856" fill="white" transform="translate(880)"/>
</clipPath>
<clipPath id="clip12_559_550">
<rect width="80" height="118.856" fill="white" transform="translate(960)"/>
</clipPath>
<clipPath id="clip13_559_550">
<rect width="80" height="118.856" fill="white" transform="translate(1040)"/>
</clipPath>
<clipPath id="clip14_559_550">
<rect width="80" height="118.856" fill="white" transform="translate(1120)"/>
</clipPath>
<clipPath id="clip15_559_550">
<rect width="80" height="118.856" fill="white" transform="translate(0 118.855)"/>
</clipPath>
<clipPath id="clip16_559_550">
<rect width="80" height="118.856" fill="white" transform="translate(80 118.855)"/>
</clipPath>
<clipPath id="clip17_559_550">
<rect width="80" height="118.856" fill="white" transform="translate(160 118.855)"/>
</clipPath>
<clipPath id="clip18_559_550">
<rect width="80" height="118.856" fill="white" transform="translate(240 118.855)"/>
</clipPath>
<clipPath id="clip19_559_550">
<rect width="80" height="118.856" fill="white" transform="translate(320 118.855)"/>
</clipPath>
<clipPath id="clip20_559_550">
<rect width="80" height="118.856" fill="white" transform="translate(400 118.855)"/>
</clipPath>
<clipPath id="clip21_559_550">
<rect width="80" height="118.856" fill="white" transform="translate(480 118.855)"/>
</clipPath>
<clipPath id="clip22_559_550">
<rect width="80" height="118.856" fill="white" transform="translate(560 118.855)"/>
</clipPath>
<clipPath id="clip23_559_550">
<rect width="80" height="118.856" fill="white" transform="translate(640 118.855)"/>
</clipPath>
<clipPath id="clip24_559_550">
<rect width="80" height="118.856" fill="white" transform="translate(720 118.855)"/>
</clipPath>
<clipPath id="clip25_559_550">
<rect width="80" height="118.856" fill="white" transform="translate(800 118.855)"/>
</clipPath>
<clipPath id="clip26_559_550">
<rect width="80" height="118.856" fill="white" transform="translate(880 118.855)"/>
</clipPath>
<clipPath id="clip27_559_550">
<rect width="80" height="118.856" fill="white" transform="translate(960 118.855)"/>
</clipPath>
<clipPath id="clip28_559_550">
<rect width="80" height="118.856" fill="white" transform="translate(1040 118.855)"/>
</clipPath>
<clipPath id="clip29_559_550">
<rect width="80" height="118.856" fill="white" transform="translate(1120 118.855)"/>
</clipPath>
<clipPath id="clip30_559_550">
<rect width="80" height="118.856" fill="white" transform="translate(0 237.713)"/>
</clipPath>
<clipPath id="clip31_559_550">
<rect width="80" height="118.856" fill="white" transform="translate(80 237.713)"/>
</clipPath>
<clipPath id="clip32_559_550">
<rect width="80" height="118.856" fill="white" transform="translate(160 237.713)"/>
</clipPath>
<clipPath id="clip33_559_550">
<rect width="80" height="118.856" fill="white" transform="translate(240 237.713)"/>
</clipPath>
<clipPath id="clip34_559_550">
<rect width="80" height="118.856" fill="white" transform="translate(320 237.713)"/>
</clipPath>
<clipPath id="clip35_559_550">
<rect width="80" height="118.856" fill="white" transform="translate(400 237.713)"/>
</clipPath>
<clipPath id="clip36_559_550">
<rect width="80" height="118.856" fill="white" transform="translate(480 237.713)"/>
</clipPath>
<clipPath id="clip37_559_550">
<rect width="80" height="118.856" fill="white" transform="translate(560 237.713)"/>
</clipPath>
<clipPath id="clip38_559_550">
<rect width="80" height="118.856" fill="white" transform="translate(640 237.713)"/>
</clipPath>
<clipPath id="clip39_559_550">
<rect width="80" height="118.856" fill="white" transform="translate(720 237.713)"/>
</clipPath>
<clipPath id="clip40_559_550">
<rect width="80" height="118.856" fill="white" transform="translate(800 237.713)"/>
</clipPath>
<clipPath id="clip41_559_550">
<rect width="80" height="118.856" fill="white" transform="translate(880 237.713)"/>
</clipPath>
<clipPath id="clip42_559_550">
<rect width="80" height="118.856" fill="white" transform="translate(960 237.713)"/>
</clipPath>
<clipPath id="clip43_559_550">
<rect width="80" height="118.856" fill="white" transform="translate(1040 237.713)"/>
</clipPath>
<clipPath id="clip44_559_550">
<rect width="80" height="118.856" fill="white" transform="translate(1120 237.713)"/>
</clipPath>
<clipPath id="clip45_559_550">
<rect width="80" height="118.856" fill="white" transform="translate(0 356.568)"/>
</clipPath>
<clipPath id="clip46_559_550">
<rect width="80" height="118.856" fill="white" transform="translate(80 356.568)"/>
</clipPath>
<clipPath id="clip47_559_550">
<rect width="80" height="118.856" fill="white" transform="translate(160 356.568)"/>
</clipPath>
<clipPath id="clip48_559_550">
<rect width="80" height="118.856" fill="white" transform="translate(240 356.568)"/>
</clipPath>
<clipPath id="clip49_559_550">
<rect width="80" height="118.856" fill="white" transform="translate(320 356.568)"/>
</clipPath>
<clipPath id="clip50_559_550">
<rect width="80" height="118.856" fill="white" transform="translate(400 356.568)"/>
</clipPath>
<clipPath id="clip51_559_550">
<rect width="80" height="118.856" fill="white" transform="translate(480 356.568)"/>
</clipPath>
<clipPath id="clip52_559_550">
<rect width="80" height="118.856" fill="white" transform="translate(560 356.568)"/>
</clipPath>
<clipPath id="clip53_559_550">
<rect width="80" height="118.856" fill="white" transform="translate(640 356.568)"/>
</clipPath>
<clipPath id="clip54_559_550">
<rect width="80" height="118.856" fill="white" transform="translate(720 356.568)"/>
</clipPath>
<clipPath id="clip55_559_550">
<rect width="80" height="118.856" fill="white" transform="translate(800 356.568)"/>
</clipPath>
<clipPath id="clip56_559_550">
<rect width="80" height="118.856" fill="white" transform="translate(880 356.568)"/>
</clipPath>
<clipPath id="clip57_559_550">
<rect width="80" height="118.856" fill="white" transform="translate(960 356.568)"/>
</clipPath>
<clipPath id="clip58_559_550">
<rect width="80" height="118.856" fill="white" transform="translate(1040 356.568)"/>
</clipPath>
<clipPath id="clip59_559_550">
<rect width="80" height="118.856" fill="white" transform="translate(1120 356.568)"/>
</clipPath>
<clipPath id="clip60_559_550">
<rect width="80" height="118.856" fill="white" transform="translate(0 475.424)"/>
</clipPath>
<clipPath id="clip61_559_550">
<rect width="80" height="118.856" fill="white" transform="translate(80 475.424)"/>
</clipPath>
<clipPath id="clip62_559_550">
<rect width="80" height="118.856" fill="white" transform="translate(160 475.424)"/>
</clipPath>
<clipPath id="clip63_559_550">
<rect width="80" height="118.856" fill="white" transform="translate(240 475.424)"/>
</clipPath>
<clipPath id="clip64_559_550">
<rect width="80" height="118.856" fill="white" transform="translate(320 475.424)"/>
</clipPath>
<clipPath id="clip65_559_550">
<rect width="80" height="118.856" fill="white" transform="translate(400 475.424)"/>
</clipPath>
<clipPath id="clip66_559_550">
<rect width="80" height="118.856" fill="white" transform="translate(480 475.424)"/>
</clipPath>
<clipPath id="clip67_559_550">
<rect width="80" height="118.856" fill="white" transform="translate(560 475.424)"/>
</clipPath>
<clipPath id="clip68_559_550">
<rect width="80" height="118.856" fill="white" transform="translate(640 475.424)"/>
</clipPath>
<clipPath id="clip69_559_550">
<rect width="80" height="118.856" fill="white" transform="translate(720 475.424)"/>
</clipPath>
<clipPath id="clip70_559_550">
<rect width="80" height="118.856" fill="white" transform="translate(800 475.424)"/>
</clipPath>
<clipPath id="clip71_559_550">
<rect width="80" height="118.856" fill="white" transform="translate(880 475.424)"/>
</clipPath>
<clipPath id="clip72_559_550">
<rect width="80" height="118.856" fill="white" transform="translate(960 475.424)"/>
</clipPath>
<clipPath id="clip73_559_550">
<rect width="80" height="118.856" fill="white" transform="translate(1040 475.424)"/>
</clipPath>
<clipPath id="clip74_559_550">
<rect width="80" height="118.856" fill="white" transform="translate(1120 475.424)"/>
</clipPath>
<clipPath id="clip75_559_550">
<rect width="80" height="118.856" fill="white" transform="translate(0 594.279)"/>
</clipPath>
<clipPath id="clip76_559_550">
<rect width="80" height="118.856" fill="white" transform="translate(80 594.279)"/>
</clipPath>
<clipPath id="clip77_559_550">
<rect width="80" height="118.856" fill="white" transform="translate(160 594.279)"/>
</clipPath>
<clipPath id="clip78_559_550">
<rect width="80" height="118.856" fill="white" transform="translate(240 594.279)"/>
</clipPath>
<clipPath id="clip79_559_550">
<rect width="80" height="118.856" fill="white" transform="translate(320 594.279)"/>
</clipPath>
<clipPath id="clip80_559_550">
<rect width="80" height="118.856" fill="white" transform="translate(400 594.279)"/>
</clipPath>
<clipPath id="clip81_559_550">
<rect width="80" height="118.856" fill="white" transform="translate(480 594.279)"/>
</clipPath>
<clipPath id="clip82_559_550">
<rect width="80" height="118.856" fill="white" transform="translate(560 594.279)"/>
</clipPath>
<clipPath id="clip83_559_550">
<rect width="80" height="118.856" fill="white" transform="translate(640 594.279)"/>
</clipPath>
<clipPath id="clip84_559_550">
<rect width="80" height="118.856" fill="white" transform="translate(720 594.279)"/>
</clipPath>
<clipPath id="clip85_559_550">
<rect width="80" height="118.856" fill="white" transform="translate(800 594.279)"/>
</clipPath>
<clipPath id="clip86_559_550">
<rect width="80" height="118.856" fill="white" transform="translate(880 594.279)"/>
</clipPath>
<clipPath id="clip87_559_550">
<rect width="80" height="118.856" fill="white" transform="translate(960 594.279)"/>
</clipPath>
<clipPath id="clip88_559_550">
<rect width="80" height="118.856" fill="white" transform="translate(1040 594.279)"/>
</clipPath>
<clipPath id="clip89_559_550">
<rect width="80" height="118.856" fill="white" transform="translate(1120 594.279)"/>
</clipPath>
</defs>
</svg>
